<svg width="107" height="50" viewBox="0 0 107 50" fill="none" xmlns="http://www.w3.org/2000/svg">
<path d="M17.552 28.472C18.576 27.6187 19.392 26.9093 20 26.344C20.608 25.768 21.1147 25.1707 21.52 24.552C21.9253 23.9333 22.128 23.3253 22.128 22.728C22.128 22.184 22 21.7573 21.744 21.448C21.488 21.1387 21.0933 20.984 20.56 20.984C20.0267 20.984 19.616 21.1653 19.328 21.528C19.04 21.88 18.8907 22.3653 18.88 22.984H16.704C16.7467 21.704 17.1253 20.7333 17.84 20.072C18.5653 19.4107 19.4827 19.08 20.592 19.08C21.808 19.08 22.7413 19.4053 23.392 20.056C24.0427 20.696 24.368 21.544 24.368 22.6C24.368 23.432 24.144 24.2267 23.696 24.984C23.248 25.7413 22.736 26.4027 22.16 26.968C21.584 27.5227 20.832 28.1947 19.904 28.984H24.624V30.84H16.72V29.176L17.552 28.472Z" fill="#1F2A36"/>
<rect x="0.5" y="0.5" width="106" height="49" rx="5.5" stroke="#8D959E"/>
<g clip-path="url(#clip0)">
<path d="M85.3 38.4835L90.6238 30.7071C90.8698 30.3479 91 29.9861 91 29.6853C91 29.1038 90.5333 28.7441 89.7522 28.7441L78.246 28.7441C77.4658 28.7441 77 29.1034 77 29.6835C77 29.9847 77.1303 30.3408 77.377 30.7007L82.7007 38.4808C83.0436 38.9811 83.505 39.2582 84.0006 39.2582C84.4959 39.2583 84.9572 38.9844 85.3 38.4835Z" fill="#8D959E"/>
</g>
<g clip-path="url(#clip1)">
<path d="M82.7 10.5165L77.3762 18.2929C77.1302 18.6521 77 19.0139 77 19.3147C77 19.8962 77.4667 20.2559 78.2478 20.2559L89.754 20.2559C90.5342 20.2559 91 19.8966 91 19.3165C91 19.0153 90.8697 18.6592 90.623 18.2993L85.2993 10.5192C84.9564 10.0189 84.495 9.74178 83.9994 9.74178C83.5041 9.74166 83.0428 10.0156 82.7 10.5165Z" fill="#8D959E"/>
</g>
<defs>
<clipPath id="clip0">
<rect width="14" height="14" fill="white" transform="translate(91 27) rotate(90)"/>
</clipPath>
<clipPath id="clip1">
<rect width="14" height="14" fill="white" transform="translate(77 22) rotate(-90)"/>
</clipPath>
</defs>
</svg>
