<svg width="463" height="830" viewBox="0 0 463 830" fill="none" xmlns="http://www.w3.org/2000/svg">
<path d="M0 0H463V830H20C8.95431 830 0 821.046 0 810V0Z" fill="#49A010"/>
<path fill-rule="evenodd" clip-rule="evenodd" d="M163.5 681C253.799 681 327 607.799 327 517.5C327 427.201 253.799 354 163.5 354C73.2014 354 0 427.201 0 517.5C0 607.799 73.2014 681 163.5 681ZM163.5 610C214.586 610 256 568.586 256 517.5C256 466.414 214.586 425 163.5 425C112.414 425 71 466.414 71 517.5C71 568.586 112.414 610 163.5 610Z" fill="#479A11"/>
<ellipse cx="75.1396" cy="613.22" rx="4.13959" ry="4.18647" fill="#3D8F07"/>
<ellipse cx="107.21" cy="613.22" rx="4.13959" ry="4.18647" fill="#3D8F07"/>
<ellipse cx="139.279" cy="613.22" rx="4.13959" ry="4.18647" fill="#3D8F07"/>
<ellipse cx="75.1396" cy="641.731" rx="4.13959" ry="4.18647" fill="#3D8F07"/>
<ellipse cx="107.21" cy="641.731" rx="4.13959" ry="4.18647" fill="#3D8F07"/>
<ellipse cx="139.279" cy="641.731" rx="4.13959" ry="4.18647" fill="#3D8F07"/>
<ellipse cx="75.1406" cy="556.186" rx="4.13959" ry="4.18647" fill="#3D8F07"/>
<ellipse cx="107.21" cy="556.186" rx="4.13959" ry="4.18647" fill="#3D8F07"/>
<ellipse cx="139.279" cy="556.186" rx="4.13959" ry="4.18647" fill="#3D8F07"/>
<ellipse cx="75.1396" cy="584.7" rx="4.13959" ry="4.18647" fill="#3D8F07"/>
<ellipse cx="107.21" cy="584.7" rx="4.13959" ry="4.18647" fill="#3D8F07"/>
<ellipse cx="139.279" cy="584.7" rx="4.13959" ry="4.18647" fill="#3D8F07"/>
<ellipse cx="168.596" cy="613.22" rx="4.13959" ry="4.18647" fill="#3D8F07"/>
<ellipse cx="200.676" cy="613.22" rx="4.13959" ry="4.18647" fill="#3D8F07"/>
<ellipse cx="232.736" cy="613.22" rx="4.13959" ry="4.18647" fill="#3D8F07"/>
<ellipse cx="168.596" cy="641.731" rx="4.13959" ry="4.18647" fill="#3D8F07"/>
<ellipse cx="200.676" cy="641.731" rx="4.13959" ry="4.18647" fill="#3D8F07"/>
<ellipse cx="232.736" cy="641.731" rx="4.13959" ry="4.18647" fill="#3D8F07"/>
<ellipse cx="75.1396" cy="670.296" rx="4.13959" ry="4.18647" fill="#3D8F07"/>
<ellipse cx="107.21" cy="670.292" rx="4.13959" ry="4.18647" fill="#3D8F07"/>
<ellipse cx="139.279" cy="670.292" rx="4.13959" ry="4.18647" fill="#3D8F07"/>
<ellipse cx="75.1396" cy="698.811" rx="4.13959" ry="4.18647" fill="#3D8F07"/>
<ellipse cx="107.21" cy="698.813" rx="4.13959" ry="4.18647" fill="#3D8F07"/>
<ellipse cx="139.279" cy="698.813" rx="4.13959" ry="4.18647" fill="#3D8F07"/>
<ellipse cx="168.596" cy="670.292" rx="4.13959" ry="4.18647" fill="#3D8F07"/>
<ellipse cx="200.676" cy="670.292" rx="4.13959" ry="4.18647" fill="#3D8F07"/>
<ellipse cx="232.736" cy="670.292" rx="4.13959" ry="4.18647" fill="#3D8F07"/>
<ellipse cx="168.596" cy="698.813" rx="4.13959" ry="4.18647" fill="#3D8F07"/>
<ellipse cx="200.676" cy="698.813" rx="4.13959" ry="4.18647" fill="#3D8F07"/>
<ellipse cx="232.736" cy="698.813" rx="4.13959" ry="4.18647" fill="#3D8F07"/>
<ellipse cx="168.596" cy="556.186" rx="4.13959" ry="4.18647" fill="#3D8F07"/>
<ellipse cx="200.676" cy="556.186" rx="4.13959" ry="4.18647" fill="#3D8F07"/>
<ellipse cx="232.736" cy="556.186" rx="4.13959" ry="4.18647" fill="#3D8F07"/>
<ellipse cx="168.596" cy="584.7" rx="4.13959" ry="4.18647" fill="#3D8F07"/>
<ellipse cx="200.676" cy="584.7" rx="4.13959" ry="4.18647" fill="#3D8F07"/>
<ellipse cx="232.736" cy="584.7" rx="4.13959" ry="4.18647" fill="#3D8F07"/>
</svg>
