<svg width="200" height="200" viewBox="0 0 200 200" fill="none" xmlns="http://www.w3.org/2000/svg">
<path d="M192.724 97.2547L182.275 47.8703C182.146 47.2571 181.809 46.7071 181.322 46.3125C180.835 45.918 180.227 45.7028 179.6 45.7031H20.2067C19.5799 45.7028 18.9721 45.918 18.4851 46.3125C17.998 46.7071 17.6614 47.2571 17.5317 47.8703L7.09109 97.2547C7.00632 97.6531 7.01168 98.0654 7.10677 98.4615C7.20187 98.8575 7.3843 99.2273 7.64072 99.5438C7.89714 99.8603 8.22107 100.115 8.5888 100.291C8.95653 100.466 9.35877 100.557 9.76609 100.556H17.4802V151.28C17.4799 151.639 17.5505 151.994 17.6879 152.326C17.8252 152.658 18.0266 152.96 18.2806 153.214C18.5345 153.468 18.836 153.669 19.1679 153.806C19.4997 153.944 19.8554 154.014 20.2145 154.014H179.6C179.96 154.014 180.315 153.944 180.647 153.806C180.979 153.669 181.28 153.468 181.534 153.214C181.788 152.96 181.99 152.658 182.127 152.326C182.264 151.994 182.335 151.639 182.335 151.28V100.556H190.049C190.456 100.557 190.858 100.466 191.226 100.291C191.594 100.115 191.918 99.8603 192.174 99.5438C192.431 99.2273 192.613 98.8575 192.708 98.4615C192.803 98.0654 192.809 97.6531 192.724 97.2547ZM22.4239 51.1719H96.5302L87.238 95.0875H13.1317L22.4239 51.1719ZM22.9411 100.556H89.4536C90.0804 100.556 90.6882 100.341 91.175 99.9461C91.6618 99.5512 91.9979 99.0009 92.127 98.3875L97.1692 74.5641V148.545H22.9411V100.556ZM176.866 148.545H102.638V74.5641L107.68 98.3875C107.809 99.0009 108.145 99.5512 108.632 99.9461C109.119 100.341 109.727 100.556 110.354 100.556H176.866V148.545ZM112.569 95.0875L103.277 51.1719H177.383L186.675 95.0875H112.569Z" fill="#E9E9E9"/>
<path d="M54.8302 134.281H34.0099C33.6508 134.281 33.2952 134.352 32.9635 134.489C32.6317 134.627 32.3303 134.828 32.0764 135.082C31.8225 135.336 31.6211 135.637 31.4837 135.969C31.3462 136.301 31.2755 136.657 31.2755 137.016C31.2755 137.375 31.3462 137.73 31.4837 138.062C31.6211 138.394 31.8225 138.695 32.0764 138.949C32.3303 139.203 32.6317 139.404 32.9635 139.542C33.2952 139.679 33.6508 139.75 34.0099 139.75H54.8302C55.1893 139.75 55.5449 139.679 55.8766 139.542C56.2084 139.404 56.5098 139.203 56.7637 138.949C57.0176 138.695 57.219 138.394 57.3564 138.062C57.4939 137.73 57.5646 137.375 57.5646 137.016C57.5646 136.657 57.4939 136.301 57.3564 135.969C57.219 135.637 57.0176 135.336 56.7637 135.082C56.5098 134.828 56.2084 134.627 55.8766 134.489C55.5449 134.352 55.1893 134.281 54.8302 134.281Z" fill="#E9E9E9"/>
<path d="M71.8457 134.281H65.6738C64.9486 134.281 64.2531 134.569 63.7403 135.082C63.2275 135.595 62.9395 136.29 62.9395 137.016C62.9395 137.741 63.2275 138.436 63.7403 138.949C64.2531 139.462 64.9486 139.75 65.6738 139.75H71.8457C72.5709 139.75 73.2664 139.462 73.7792 138.949C74.292 138.436 74.5801 137.741 74.5801 137.016C74.5801 136.29 74.292 135.595 73.7792 135.082C73.2664 134.569 72.5709 134.281 71.8457 134.281Z" fill="#E9E9E9"/>
<path d="M169.054 59.8164H148.235C147.51 59.8164 146.814 60.1045 146.301 60.6173C145.789 61.1301 145.5 61.8256 145.5 62.5508C145.5 63.276 145.789 63.9715 146.301 64.4843C146.814 64.9971 147.51 65.2852 148.235 65.2852H169.054C169.779 65.2852 170.474 64.9971 170.987 64.4843C171.5 63.9715 171.788 63.276 171.788 62.5508C171.788 61.8256 171.5 61.1301 170.987 60.6173C170.474 60.1045 169.779 59.8164 169.054 59.8164Z" fill="#E9E9E9"/>
<path d="M137.391 59.8164H131.219C130.494 59.8164 129.799 60.1045 129.286 60.6173C128.773 61.1301 128.485 61.8256 128.485 62.5508C128.485 63.276 128.773 63.9715 129.286 64.4843C129.799 64.9971 130.494 65.2852 131.219 65.2852H137.391C138.116 65.2852 138.812 64.9971 139.325 64.4843C139.837 63.9715 140.126 63.276 140.126 62.5508C140.126 61.8256 139.837 61.1301 139.325 60.6173C138.812 60.1045 138.116 59.8164 137.391 59.8164Z" fill="#E9E9E9"/>
</svg>
