<svg width="131" height="131" viewBox="0 0 131 131" fill="none" xmlns="http://www.w3.org/2000/svg">
<rect width="131" height="130.997" rx="15" fill="#F4FFEC"/>
<path d="M65.501 0H110.233V60.5807C110.233 63.4405 107.849 65.7586 104.908 65.7586H65.501V0Z" fill="url(#paint0_linear)"/>
<path d="M0 39.8711H82.0081C89.3606 39.8711 95.3211 45.6665 95.3211 52.8155V131H13.313C5.96045 131 0 125.204 0 118.055V39.8711Z" fill="url(#paint1_linear)"/>
<rect x="59.0957" y="60.0615" width="20.7686" height="3.62449" fill="white"/>
<rect x="64.9517" y="67.3105" width="9.05298" height="2.07114" fill="white"/>
<path d="M50.098 48.2806L38.0926 33.1504C39.5935 29.0652 44.4078 27.4135 46.5336 27.0983C47.8467 26.9035 50.098 30.5135 51.7859 31.8265C57.0383 35.9116 58.6141 30.8808 61.5404 28.4222C66.0424 24.6396 69.2314 29.3679 70.5445 31.4482C75.4216 38.6351 80.674 28.2331 81.4243 27.8548C85.7763 25.5853 90.1159 30.4396 91.7415 33.1504L80.1112 48.2806C85.3636 52.0631 90.0532 61.9608 91.7415 66.4369C94.8929 71.5812 95.1807 85.8539 94.9305 92.3474C94.6303 99.3073 87.5523 102.182 84.0505 102.749C83 103.203 58.4765 102.939 46.346 102.749C36.4415 102.144 34.7159 93.0407 35.0912 88.5648C34.3409 80.9997 38.4052 67.3825 40.5312 61.5195C42.4821 56.8292 47.7219 50.7393 50.098 48.2806Z" fill="url(#paint2_linear)"/>
<path d="M50 48C50.5636 48 65.594 54.75 81 48" stroke="url(#paint3_linear)" stroke-width="2"/>
<path d="M61.864 84L59.4 79.648H58.344V84H56.104V72.832H60.296C61.16 72.832 61.896 72.9867 62.504 73.296C63.112 73.5947 63.5653 74.0053 63.864 74.528C64.1733 75.04 64.328 75.616 64.328 76.256C64.328 76.992 64.1147 77.6587 63.688 78.256C63.2613 78.8427 62.6267 79.248 61.784 79.472L64.456 84H61.864ZM58.344 77.968H60.216C60.824 77.968 61.2773 77.824 61.576 77.536C61.8747 77.2373 62.024 76.8267 62.024 76.304C62.024 75.792 61.8747 75.3973 61.576 75.12C61.2773 74.832 60.824 74.688 60.216 74.688H58.344V77.968ZM68.594 76.416C68.882 76.0107 69.2767 75.6747 69.778 75.408C70.29 75.1307 70.8713 74.992 71.522 74.992C72.2793 74.992 72.962 75.1787 73.57 75.552C74.1887 75.9253 74.674 76.4587 75.026 77.152C75.3887 77.8347 75.57 78.6293 75.57 79.536C75.57 80.4427 75.3887 81.248 75.026 81.952C74.674 82.6453 74.1887 83.184 73.57 83.568C72.962 83.952 72.2793 84.144 71.522 84.144C70.8713 84.144 70.2953 84.0107 69.794 83.744C69.3033 83.4773 68.9033 83.1413 68.594 82.736V88.224H66.354V75.136H68.594V76.416ZM73.282 79.536C73.282 79.0027 73.17 78.544 72.946 78.16C72.7327 77.7653 72.4447 77.4667 72.082 77.264C71.73 77.0613 71.346 76.96 70.93 76.96C70.5247 76.96 70.1407 77.0667 69.778 77.28C69.426 77.4827 69.138 77.7813 68.914 78.176C68.7007 78.5707 68.594 79.0347 68.594 79.568C68.594 80.1013 68.7007 80.5653 68.914 80.96C69.138 81.3547 69.426 81.6587 69.778 81.872C70.1407 82.0747 70.5247 82.176 70.93 82.176C71.346 82.176 71.73 82.0693 72.082 81.856C72.4447 81.6427 72.7327 81.3387 72.946 80.944C73.17 80.5493 73.282 80.08 73.282 79.536Z" fill="url(#paint4_linear)"/>
<defs>
<linearGradient id="paint0_linear" x1="70.976" y1="16.0972" x2="70.976" y2="65.7586" gradientUnits="userSpaceOnUse">
<stop stop-color="#6DED18" stop-opacity="0.12"/>
<stop offset="1" stop-color="#6DED18" stop-opacity="0.01"/>
</linearGradient>
<linearGradient id="paint1_linear" x1="-6.77143" y1="44.28" x2="-6.77143" y2="148.356" gradientUnits="userSpaceOnUse">
<stop stop-color="#6DED18" stop-opacity="0.16"/>
<stop offset="1" stop-color="#6DED18" stop-opacity="0.01"/>
</linearGradient>
<linearGradient id="paint2_linear" x1="59.5" y1="92" x2="69.5" y2="12.5" gradientUnits="userSpaceOnUse">
<stop stop-color="#F47E00"/>
<stop offset="1" stop-color="#FACB99"/>
</linearGradient>
<linearGradient id="paint3_linear" x1="50.5" y1="47.5" x2="83" y2="48.5" gradientUnits="userSpaceOnUse">
<stop offset="0.0348096" stop-color="#347D03"/>
<stop offset="1" stop-color="#5FC51B"/>
</linearGradient>
<linearGradient id="paint4_linear" x1="66" y1="68.5" x2="66" y2="90" gradientUnits="userSpaceOnUse">
<stop stop-color="#347D03"/>
<stop offset="1" stop-color="#5FC51B"/>
</linearGradient>
</defs>
</svg>
