<svg width="16" height="16" viewBox="0 0 16 16" fill="none" xmlns="http://www.w3.org/2000/svg">
<path d="M13.5935 11.2382C13.5668 11.0731 13.4633 10.9319 13.3082 10.8481L11.0146 9.49674L10.9958 9.48618C10.8996 9.43804 10.7934 9.41337 10.6858 9.41418C10.4937 9.41418 10.3102 9.48698 10.1828 9.61466L9.50585 10.2919C9.47689 10.3195 9.38249 10.3593 9.35385 10.3607C9.34601 10.3601 8.56617 10.3039 7.13049 8.8681C5.69737 7.4353 5.63657 6.65306 5.63609 6.65306C5.63689 6.61306 5.67625 6.51898 5.70425 6.48986L6.28153 5.91274C6.48489 5.7089 6.54585 5.37098 6.42521 5.10922L5.15033 2.71034C5.05769 2.51962 4.87769 2.40186 4.67801 2.40186C4.53673 2.40186 4.40041 2.46042 4.29385 2.56682L2.72025 4.1369C2.56937 4.28698 2.43945 4.54938 2.41113 4.76058C2.39737 4.86154 2.11817 7.27146 5.42217 10.5759C8.22713 13.3806 10.4143 13.5985 11.0183 13.5985C11.0919 13.5994 11.1654 13.5956 11.2385 13.5871C11.449 13.559 11.7111 13.4294 11.861 13.2791L13.4334 11.707C13.5617 11.578 13.6202 11.4076 13.5935 11.2382Z" fill="#46505C"/>
</svg>
