<svg width="24" height="24" viewBox="0 0 24 24" fill="none" xmlns="http://www.w3.org/2000/svg">
<ellipse cx="11.8154" cy="12" rx="11.8154" ry="12" fill="#E35940"/>
<path fill-rule="evenodd" clip-rule="evenodd" d="M10.3384 23.8544C15.9869 22.9542 20.3076 17.9896 20.3076 12C20.3076 6.01043 15.9869 1.04578 10.3384 0.145625C10.9399 0.0497654 11.5565 0 12.1845 0C18.71 0 23.9999 5.37258 23.9999 12C23.9999 18.6274 18.71 24 12.1845 24C11.5565 24 10.9399 23.9502 10.3384 23.8544Z" fill="#9E3E2C"/>
<g clip-path="url(#clip0)">
<path d="M14.6743 7.35598L11.814 10.2611C10.8606 9.29317 9.90689 8.32426 8.95335 7.35598C7.85027 6.23567 6.14042 7.97285 7.24258 9.09348C8.19627 10.0611 9.15027 11.0302 10.1029 11.9985C9.14983 12.9672 8.1964 13.9355 7.24258 14.9035C6.14042 16.0235 7.85042 17.7602 8.95335 16.641C9.90673 15.6724 10.8604 14.7036 11.8138 13.7357L14.6741 16.641C15.7772 17.761 17.4875 16.0236 16.3849 14.9035C15.4312 13.9349 14.4778 12.9666 13.5238 11.9982C14.4777 11.0296 15.431 10.061 16.3849 9.09254C17.4877 7.97285 15.7773 6.23567 14.6741 7.3566" fill="white"/>
</g>
<defs>
<clipPath id="clip0">
<rect width="9.84615" height="10" fill="white" transform="translate(6.89209 7)"/>
</clipPath>
</defs>
</svg>
