<svg width="24" height="24" viewBox="0 0 24 24" fill="none" xmlns="http://www.w3.org/2000/svg">
<ellipse cx="11.8154" cy="12" rx="11.8154" ry="12" fill="#49A010"/>
<path fill-rule="evenodd" clip-rule="evenodd" d="M10.3384 23.8544C15.9869 22.9542 20.3076 17.9896 20.3076 12C20.3076 6.01043 15.9869 1.04578 10.3384 0.145625C10.9399 0.0497654 11.5565 0 12.1845 0C18.71 0 23.9999 5.37258 23.9999 12C23.9999 18.6274 18.71 24 12.1845 24C11.5565 24 10.9399 23.9502 10.3384 23.8544Z" fill="#3A7F0D"/>
<path d="M15.8951 7.20823C15.7067 7.10178 15.4995 7.03408 15.2854 7.00901C15.0712 6.98393 14.8543 7.00198 14.647 7.06212C14.4398 7.12226 14.2462 7.2233 14.0774 7.35948C13.9086 7.49565 13.7679 7.66428 13.6633 7.85573L10.6167 13.4241L8.87315 11.6532C8.72177 11.494 8.5407 11.3671 8.34048 11.2797C8.14027 11.1924 7.92494 11.1464 7.70704 11.1445C7.48915 11.1426 7.27306 11.1847 7.07138 11.2685C6.86971 11.3523 6.68648 11.4761 6.5324 11.6326C6.37832 11.7891 6.25647 11.9751 6.17396 12.18C6.09145 12.3848 6.04993 12.6043 6.05182 12.8256C6.05371 13.0469 6.09898 13.2656 6.18499 13.4689C6.27099 13.6722 6.39601 13.8562 6.55274 14.0099L9.8348 17.3432C10.1449 17.6591 10.5634 17.8324 10.995 17.8324L11.2223 17.8157C11.4738 17.78 11.7137 17.6855 11.9232 17.5395C12.1326 17.3936 12.3059 17.2004 12.4293 16.9749L16.5318 9.4749C16.6366 9.28361 16.7032 9.07324 16.7279 8.8558C16.7526 8.63836 16.7348 8.41811 16.6757 8.20763C16.6166 7.99715 16.5172 7.80056 16.3833 7.62908C16.2493 7.4576 16.0835 7.3146 15.8951 7.20823Z" fill="white"/>
</svg>
