<svg width="131" height="131" viewBox="0 0 131 131" fill="none" xmlns="http://www.w3.org/2000/svg">
<rect width="131" height="130.997" rx="15" fill="#F4FFEC"/>
<path d="M65.501 0H110.233V60.5807C110.233 63.4405 107.849 65.7586 104.908 65.7586H65.501V0Z" fill="url(#paint0_linear)"/>
<path d="M0 39.8711H82.0081C89.3606 39.8711 95.3211 45.6665 95.3211 52.8155V131H13.313C5.96045 131 0 125.204 0 118.055V39.8711Z" fill="url(#paint1_linear)"/>
<rect x="59.0957" y="60.0615" width="20.7686" height="3.62449" fill="white"/>
<rect x="64.9517" y="67.3105" width="9.05298" height="2.07114" fill="white"/>
<path d="M101.762 31.389C100.994 30.9147 100.035 30.8713 99.2275 31.2743L79.4706 41.1553L57.13 31.2247C57.0935 31.2091 57.0518 31.2063 57.0127 31.1907C56.9122 31.1532 56.8094 31.1218 56.705 31.0969C56.6013 31.069 56.4959 31.0471 56.3896 31.0317C56.1778 31.0143 55.965 31.0143 55.7535 31.0317C55.6471 31.0471 55.5417 31.069 55.438 31.0969C55.3337 31.1218 55.2309 31.1532 55.1303 31.1907C55.0912 31.2063 55.0495 31.2089 55.013 31.2247L31.5486 41.6533C30.6068 42.0717 29.9998 43.0057 30 44.0362V101.393C29.9998 102.833 31.167 104.001 32.6069 104.001C32.9717 104.001 33.3324 103.925 33.6657 103.776L56.0715 93.8171L78.4773 103.776C78.5165 103.792 78.5582 103.776 78.5973 103.8C79.2285 104.082 79.953 104.066 80.5708 103.756C80.6125 103.737 80.6594 103.756 80.7011 103.727L101.558 93.2983C102.442 92.8567 103 91.9531 103 90.9649V33.6076C103 32.7034 102.531 31.8637 101.762 31.389Z" fill="url(#paint2_linear)"/>
<path d="M42.2212 34.5137C38.0938 34.5137 34.7358 37.8724 34.7358 42.0007C34.7358 47.1896 42.2286 56.0532 42.2286 56.0532C42.2286 56.0532 49.7066 46.9344 49.7066 42.0007C49.7066 37.8724 46.3487 34.5137 42.2212 34.5137ZM44.4797 44.1929C43.8569 44.8157 43.0391 45.1271 42.2212 45.1271C41.4034 45.1271 40.5853 44.8157 39.9628 44.1929C38.7175 42.9474 38.7175 40.9207 39.9628 39.6751C40.5659 39.0716 41.368 38.7393 42.2212 38.7393C43.0744 38.7393 43.8764 39.0718 44.4797 39.6751C45.7251 40.9207 45.7251 42.9474 44.4797 44.1929Z" fill="url(#paint3_linear)"/>
<path d="M89.1189 71.6348C84.9915 71.6348 81.6335 74.9935 81.6335 79.1218C81.6335 84.3107 89.1263 93.1743 89.1263 93.1743C89.1263 93.1743 96.6043 84.0555 96.6043 79.1218C96.6043 74.9935 93.2464 71.6348 89.1189 71.6348ZM91.3774 81.314C90.7546 81.9368 89.9368 82.2482 89.1189 82.2482C88.3011 82.2482 87.483 81.9368 86.8605 81.314C85.6152 80.0685 85.6152 78.0418 86.8605 76.7962C87.4636 76.1927 88.2657 75.8604 89.1189 75.8604C89.9721 75.8604 90.7741 76.1928 91.3774 76.7962C92.6228 78.0418 92.6228 80.0685 91.3774 81.314Z" fill="url(#paint4_linear)"/>
<path d="M56.0459 31C55.9848 31.6722 56.0205 72.7805 56.0459 93.2507" stroke="url(#paint5_linear)"/>
<path d="M79.4187 41.1582V104.02" stroke="url(#paint6_linear)"/>
<defs>
<linearGradient id="paint0_linear" x1="70.976" y1="16.0972" x2="70.976" y2="65.7586" gradientUnits="userSpaceOnUse">
<stop stop-color="#6DED18" stop-opacity="0.12"/>
<stop offset="1" stop-color="#6DED18" stop-opacity="0.01"/>
</linearGradient>
<linearGradient id="paint1_linear" x1="-6.77143" y1="44.28" x2="-6.77143" y2="148.356" gradientUnits="userSpaceOnUse">
<stop stop-color="#6DED18" stop-opacity="0.16"/>
<stop offset="1" stop-color="#6DED18" stop-opacity="0.01"/>
</linearGradient>
<linearGradient id="paint2_linear" x1="70.5" y1="22" x2="66" y2="90.5" gradientUnits="userSpaceOnUse">
<stop stop-color="#FACB99"/>
<stop offset="0.974215" stop-color="#F47E00"/>
</linearGradient>
<linearGradient id="paint3_linear" x1="42.2212" y1="34.5137" x2="42.2212" y2="56.0532" gradientUnits="userSpaceOnUse">
<stop offset="0.17882" stop-color="#347D03"/>
<stop offset="1" stop-color="#5FC51B"/>
</linearGradient>
<linearGradient id="paint4_linear" x1="89.1189" y1="71.6348" x2="89.1189" y2="93.1743" gradientUnits="userSpaceOnUse">
<stop offset="0.17882" stop-color="#347D03"/>
<stop offset="1" stop-color="#5FC51B"/>
</linearGradient>
<linearGradient id="paint5_linear" x1="56.0291" y1="31" x2="56.0291" y2="93.2507" gradientUnits="userSpaceOnUse">
<stop stop-color="#347D03"/>
<stop offset="1" stop-color="#5FC51B"/>
</linearGradient>
<linearGradient id="paint6_linear" x1="79.9187" y1="41.1582" x2="79.9187" y2="104.02" gradientUnits="userSpaceOnUse">
<stop stop-color="#347D03"/>
<stop offset="1" stop-color="#5FC51B"/>
</linearGradient>
</defs>
</svg>
