<svg width="98" height="99" viewBox="0 0 98 99" fill="none" xmlns="http://www.w3.org/2000/svg">
<rect width="98" height="98" rx="15" fill="#F4FFEC"/>
<path d="M49 0H82.4634V45.3202C82.4634 47.4595 80.6799 49.1937 78.4797 49.1937H49V0Z" fill="url(#paint0_linear)"/>
<path d="M0 29.8271H61.3496C66.8499 29.8271 71.3089 34.1627 71.3089 39.5109V98.0011H9.95935C4.45896 98.0011 0 93.6654 0 88.3173V29.8271Z" fill="url(#paint1_linear)"/>
<rect x="48.5898" y="50.3545" width="6.77236" height="1.54941" fill="white"/>
<path d="M61 61L38 61L38 58L59.7568 58L61 61Z" fill="url(#paint2_linear)"/>
<circle cx="32.5" cy="41.5" r="14.5" fill="url(#paint3_linear)"/>
<ellipse cx="32.5" cy="41" rx="11.5" ry="11" transform="rotate(-180 32.5 41)" fill="url(#paint4_linear)"/>
<path d="M29.3818 45L27.6298 41.82H27.1378V45H25.0858V36.576H28.5298C29.1938 36.576 29.7578 36.692 30.2218 36.924C30.6938 37.156 31.0458 37.476 31.2778 37.884C31.5098 38.284 31.6258 38.732 31.6258 39.228C31.6258 39.788 31.4658 40.288 31.1458 40.728C30.8338 41.168 30.3698 41.48 29.7538 41.664L31.6978 45H29.3818ZM27.1378 40.368H28.4098C28.7858 40.368 29.0658 40.276 29.2498 40.092C29.4418 39.908 29.5378 39.648 29.5378 39.312C29.5378 38.992 29.4418 38.74 29.2498 38.556C29.0658 38.372 28.7858 38.28 28.4098 38.28H27.1378V40.368ZM39.3339 39.288C39.3339 39.776 39.2219 40.224 38.9979 40.632C38.7739 41.032 38.4299 41.356 37.9659 41.604C37.5019 41.852 36.9259 41.976 36.2379 41.976H34.9659V45H32.9139V36.576H36.2379C36.9099 36.576 37.4779 36.692 37.9419 36.924C38.4059 37.156 38.7539 37.476 38.9859 37.884C39.2179 38.292 39.3339 38.76 39.3339 39.288ZM36.0819 40.344C36.4739 40.344 36.7659 40.252 36.9579 40.068C37.1499 39.884 37.2459 39.624 37.2459 39.288C37.2459 38.952 37.1499 38.692 36.9579 38.508C36.7659 38.324 36.4739 38.232 36.0819 38.232H34.9659V40.344H36.0819Z" fill="#F8B165"/>
<circle cx="75.5" cy="41.5" r="14.5" fill="url(#paint5_linear)"/>
<ellipse cx="75" cy="41" rx="11" ry="11" transform="rotate(-180 75 41)" fill="url(#paint6_linear)"/>
<path d="M72.8818 45L71.1298 41.82H70.6378V45H68.5858V36.576H72.0298C72.6938 36.576 73.2578 36.692 73.7218 36.924C74.1938 37.156 74.5458 37.476 74.7778 37.884C75.0098 38.284 75.1258 38.732 75.1258 39.228C75.1258 39.788 74.9658 40.288 74.6458 40.728C74.3338 41.168 73.8698 41.48 73.2538 41.664L75.1978 45H72.8818ZM70.6378 40.368H71.9098C72.2858 40.368 72.5658 40.276 72.7498 40.092C72.9418 39.908 73.0378 39.648 73.0378 39.312C73.0378 38.992 72.9418 38.74 72.7498 38.556C72.5658 38.372 72.2858 38.28 71.9098 38.28H70.6378V40.368ZM82.8339 39.288C82.8339 39.776 82.7219 40.224 82.4979 40.632C82.2739 41.032 81.9299 41.356 81.4659 41.604C81.0019 41.852 80.4259 41.976 79.7379 41.976H78.4659V45H76.4139V36.576H79.7379C80.4099 36.576 80.9779 36.692 81.4419 36.924C81.9059 37.156 82.2539 37.476 82.4859 37.884C82.7179 38.292 82.8339 38.76 82.8339 39.288ZM79.5819 40.344C79.9739 40.344 80.2659 40.252 80.4579 40.068C80.6499 39.884 80.7459 39.624 80.7459 39.288C80.7459 38.952 80.6499 38.692 80.4579 38.508C80.2659 38.324 79.9739 38.232 79.5819 38.232H78.4659V40.344H79.5819Z" fill="#F8B165"/>
<rect x="15" y="46" width="34" height="25" rx="1" fill="url(#paint7_linear)"/>
<rect x="58" y="46" width="34" height="25" rx="1" fill="url(#paint8_linear)"/>
<defs>
<linearGradient id="paint0_linear" x1="53.0958" y1="12.0422" x2="53.0958" y2="49.1937" gradientUnits="userSpaceOnUse">
<stop stop-color="#6DED18" stop-opacity="0.12"/>
<stop offset="1" stop-color="#6DED18" stop-opacity="0.01"/>
</linearGradient>
<linearGradient id="paint1_linear" x1="-5.06565" y1="33.1255" x2="-5.06565" y2="110.985" gradientUnits="userSpaceOnUse">
<stop stop-color="#6DED18" stop-opacity="0.16"/>
<stop offset="1" stop-color="#6DED18" stop-opacity="0.01"/>
</linearGradient>
<linearGradient id="paint2_linear" x1="39.059" y1="58.9946" x2="49.8042" y2="59.0781" gradientUnits="userSpaceOnUse">
<stop stop-color="#347D03"/>
<stop offset="1" stop-color="#5FC51B"/>
</linearGradient>
<linearGradient id="paint3_linear" x1="15.5833" y1="24.5833" x2="47" y2="69.6944" gradientUnits="userSpaceOnUse">
<stop stop-color="#347D03"/>
<stop offset="0.897859" stop-color="#5DC11A"/>
</linearGradient>
<linearGradient id="paint4_linear" x1="19.0833" y1="28.1667" x2="42.5319" y2="63.3669" gradientUnits="userSpaceOnUse">
<stop stop-color="#347D03"/>
<stop offset="0.897859" stop-color="#5DC11A"/>
</linearGradient>
<linearGradient id="paint5_linear" x1="58.5833" y1="24.5833" x2="90" y2="69.6944" gradientUnits="userSpaceOnUse">
<stop stop-color="#347D03"/>
<stop offset="0.897859" stop-color="#5DC11A"/>
</linearGradient>
<linearGradient id="paint6_linear" x1="62.1667" y1="28.1667" x2="86" y2="62.3889" gradientUnits="userSpaceOnUse">
<stop stop-color="#347D03"/>
<stop offset="0.897859" stop-color="#5DC11A"/>
</linearGradient>
<linearGradient id="paint7_linear" x1="32.8095" y1="48.6786" x2="32.8095" y2="74.5714" gradientUnits="userSpaceOnUse">
<stop stop-color="#F47E00"/>
<stop offset="1" stop-color="#FACB99"/>
</linearGradient>
<linearGradient id="paint8_linear" x1="75.8095" y1="48.6786" x2="75.8095" y2="72.7857" gradientUnits="userSpaceOnUse">
<stop stop-color="#F47E00"/>
<stop offset="1" stop-color="#FACB99"/>
</linearGradient>
</defs>
</svg>
