<svg width="131" height="131" viewBox="0 0 131 131" fill="none" xmlns="http://www.w3.org/2000/svg">
<rect width="131" height="130.997" rx="15" fill="#F4FFEC"/>
<path d="M65.501 0H110.233V60.5807C110.233 63.4405 107.849 65.7586 104.908 65.7586H65.501V0Z" fill="url(#paint0_linear)"/>
<path d="M0 39.8711H82.0081C89.3606 39.8711 95.3211 45.6665 95.3211 52.8155V131H13.313C5.96045 131 0 125.204 0 118.055V39.8711Z" fill="url(#paint1_linear)"/>
<rect x="59.0957" y="60.0615" width="20.7686" height="3.62449" fill="white"/>
<rect x="64.9517" y="67.3105" width="9.05298" height="2.07114" fill="white"/>
<path fill-rule="evenodd" clip-rule="evenodd" d="M81.9896 45.0441C81.9896 54.4421 74.3435 62.0883 64.9455 62.0883C55.5475 62.0883 47.9014 54.4421 47.9014 45.0441C47.9014 35.6461 55.5475 28 64.9455 28C74.3435 28 81.9896 35.6461 81.9896 45.0441ZM71.6325 62.0881H73.051C86.1969 62.0881 96.8922 73.7556 96.8922 88.0972V101.771C96.8922 103.002 95.8945 104 94.6634 104H35.2288C33.9977 104 33 103.002 33 101.771V88.0972C33 73.7556 43.6953 62.0881 56.8412 62.0881H58.2597V73.0143L55.3309 87.6601C55.1719 88.4583 55.4598 89.2804 56.0831 89.8041L63.5125 96.0463C63.9269 96.3946 64.4365 96.5688 64.9461 96.5688C65.4557 96.5688 65.9653 96.3946 66.3797 96.0463L73.8091 89.8041C74.4324 89.2804 74.7203 88.4583 74.5607 87.6601L71.6325 73.0143V62.0881Z" fill="url(#paint2_linear)"/>
<path fill-rule="evenodd" clip-rule="evenodd" d="M67.0888 66.5586H62.6182V71.0292H67.0888V66.5586ZM64.946 91.5194L60.0098 87.3165L62.3414 75.4998H67.5507L69.8823 87.3165L64.946 91.5194Z" fill="url(#paint3_linear)"/>
<defs>
<linearGradient id="paint0_linear" x1="70.976" y1="16.0972" x2="70.976" y2="65.7586" gradientUnits="userSpaceOnUse">
<stop stop-color="#6DED18" stop-opacity="0.12"/>
<stop offset="1" stop-color="#6DED18" stop-opacity="0.01"/>
</linearGradient>
<linearGradient id="paint1_linear" x1="-6.77143" y1="44.28" x2="-6.77143" y2="148.356" gradientUnits="userSpaceOnUse">
<stop stop-color="#6DED18" stop-opacity="0.16"/>
<stop offset="1" stop-color="#6DED18" stop-opacity="0.01"/>
</linearGradient>
<linearGradient id="paint2_linear" x1="63.5" y1="102" x2="69" y2="17" gradientUnits="userSpaceOnUse">
<stop stop-color="#F47E00"/>
<stop offset="1" stop-color="#FACB99"/>
</linearGradient>
<linearGradient id="paint3_linear" x1="64.946" y1="66.5586" x2="65" y2="86.4998" gradientUnits="userSpaceOnUse">
<stop stop-color="#347D03"/>
<stop offset="1" stop-color="#5FC51B"/>
</linearGradient>
</defs>
</svg>
