<svg width="18" height="18" viewBox="0 0 18 18" fill="none" xmlns="http://www.w3.org/2000/svg">
<path d="M9 0C4.0374 0 0 4.03745 0 9.00006C0 13.9627 4.0374 18 9 18C13.9626 18 18 13.9627 18 9.00006C18 4.03745 13.9626 0 9 0ZM9 16.3636C4.93964 16.3636 1.63636 13.0604 1.63636 9.00006C1.63636 4.93975 4.93964 1.63636 9 1.63636C13.0604 1.63636 16.3636 4.93975 16.3636 9.00006C16.3636 13.0604 13.0603 16.3636 9 16.3636Z" fill="#F47E00"/>
<path d="M9.00036 3.81738C8.39894 3.81738 7.90967 4.30698 7.90967 4.90878C7.90967 5.51004 8.39894 5.9992 9.00036 5.9992C9.60178 5.9992 10.0911 5.51004 10.0911 4.90878C10.0911 4.30698 9.60178 3.81738 9.00036 3.81738Z" fill="#F47E00"/>
<path d="M9.00031 7.63672C8.54846 7.63672 8.18213 8.00305 8.18213 8.4549V13.364C8.18213 13.8158 8.54846 14.1822 9.00031 14.1822C9.45217 14.1822 9.81849 13.8158 9.81849 13.364V8.4549C9.81849 8.00305 9.45217 7.63672 9.00031 7.63672Z" fill="#F47E00"/>
</svg>
