<svg width="131" height="131" viewBox="0 0 131 131" fill="none" xmlns="http://www.w3.org/2000/svg">
<rect width="131" height="130.997" rx="15" fill="#F4FFEC"/>
<path d="M65.501 0H110.233V60.5807C110.233 63.4405 107.849 65.7586 104.908 65.7586H65.501V0Z" fill="url(#paint0_linear)"/>
<path d="M0 39.8711H82.0081C89.3606 39.8711 95.3211 45.6665 95.3211 52.8155V131H13.313C5.96045 131 0 125.204 0 118.055V39.8711Z" fill="url(#paint1_linear)"/>
<rect x="59.0957" y="60.0615" width="20.7686" height="3.62449" fill="white"/>
<rect x="64.9517" y="67.3105" width="9.05298" height="2.07114" fill="white"/>
<g clip-path="url(#clip0)">
<path d="M90.7756 43.1869C90.7756 45.5406 79.8913 47.7136 66.5001 48.1359C53.1088 48.5584 42.2246 46.9892 42.2246 44.6354C42.2246 43.1265 46.6884 41.6781 53.3534 40.7727C57.1445 40.2295 61.6696 39.8674 66.5001 39.6864C70.8416 39.5656 74.9384 39.626 78.4849 39.8674C85.8227 40.4106 90.7756 41.6177 90.7756 43.1869Z" fill="#347D03"/>
<path fill-rule="evenodd" clip-rule="evenodd" d="M82.7727 43.8258C82.7727 52.8428 75.4727 60.179 66.5001 60.179C57.5276 60.179 50.2275 52.8428 50.2275 43.8258C50.2275 34.8088 57.5276 27.4727 66.5001 27.4727C75.4727 27.4727 82.7727 34.8088 82.7727 43.8258ZM59.1195 60.7875C46.351 60.7875 36 71.1897 36 84.0215V99.213C36 100.2 36.7962 101 37.7784 101H95.2216C96.2038 101 97 100.2 97 99.213V84.0215C97 71.1897 86.649 60.7875 73.8805 60.7875H59.1195Z" fill="url(#paint2_linear)"/>
<path d="M42.5576 43.974C42.4437 44.1362 42.3327 44.2952 42.2246 44.4511C42.3063 44.2875 42.4184 44.1285 42.5576 43.974C48.0568 36.1526 60.1671 21.4815 62.1981 19.8495C63.7345 18.6148 65.2211 18.0007 66.1928 18C67.1645 17.9993 69.386 18.7243 70.4948 19.8495C77.3715 26.8268 88.808 40.448 90.6001 42.4188C90.6739 42.4855 90.7322 42.5482 90.7756 42.6061C90.7354 42.5659 90.6766 42.503 90.6001 42.4188C89.6282 41.5434 85.936 39.9891 77.2551 39.5321C72.2361 38.7123 60.8461 37.6876 55.4378 40.1469C51.8044 40.5299 44.5114 41.806 42.5576 43.974Z" fill="url(#paint3_linear)"/>
<path d="M59.7398 40.5187C50.8286 40.7437 43.761 43.2406 42.2246 44.4507L44.222 41.7286L46.2193 39.0065C48.9234 36.8289 59.4325 36.5873 65.5782 36.5869C72.3385 36.5867 86.2951 37.621 86.7809 38.0991C87.3955 38.7041 90.161 41.426 90.7756 42.9382C89.5466 41.6112 80.5328 40.4179 76.3332 40.2163C71.7239 39.995 64.9637 40.3869 59.7398 40.5187Z" fill="#5FC51B"/>
</g>
<defs>
<linearGradient id="paint0_linear" x1="70.976" y1="16.0972" x2="70.976" y2="65.7586" gradientUnits="userSpaceOnUse">
<stop stop-color="#6DED18" stop-opacity="0.12"/>
<stop offset="1" stop-color="#6DED18" stop-opacity="0.01"/>
</linearGradient>
<linearGradient id="paint1_linear" x1="-6.77143" y1="44.28" x2="-6.77143" y2="148.356" gradientUnits="userSpaceOnUse">
<stop stop-color="#6DED18" stop-opacity="0.16"/>
<stop offset="1" stop-color="#6DED18" stop-opacity="0.01"/>
</linearGradient>
<linearGradient id="paint2_linear" x1="61" y1="101" x2="72.5" y2="5.50025" gradientUnits="userSpaceOnUse">
<stop stop-color="#F47E00"/>
<stop offset="0.734901" stop-color="#F8B770"/>
<stop offset="1" stop-color="#FACB99"/>
</linearGradient>
<linearGradient id="paint3_linear" x1="66.5001" y1="18" x2="66.5001" y2="44.4511" gradientUnits="userSpaceOnUse">
<stop stop-color="#5FC51B"/>
<stop offset="0.767869" stop-color="#347D03"/>
</linearGradient>
<clipPath id="clip0">
<rect width="61" height="84" fill="white" transform="translate(36 18)"/>
</clipPath>
</defs>
</svg>
