<svg width="98" height="99" viewBox="0 0 98 99" fill="none" xmlns="http://www.w3.org/2000/svg">
<rect width="98" height="98" rx="15" fill="#F4FFEC"/>
<path d="M49 0H82.4634V45.3202C82.4634 47.4595 80.6799 49.1937 78.4797 49.1937H49V0Z" fill="url(#paint0_linear)"/>
<path d="M0 29.8271H61.3496C66.8499 29.8271 71.3089 34.1627 71.3089 39.5109V98.0011H9.95935C4.45896 98.0011 0 93.6654 0 88.3173V29.8271Z" fill="url(#paint1_linear)"/>
<rect x="44.209" y="44.9316" width="15.5366" height="2.71146" fill="white"/>
<rect x="48.5898" y="50.3545" width="6.77236" height="1.54941" fill="white"/>
<path d="M50.8797 70.4156C50.8016 70.4937 50.7234 70.65 50.5671 70.7282C49.9418 71.3535 46.8155 71.2753 38.6088 66.8984C30.6366 62.6778 24.8528 46.1081 23.6804 41.2623C23.6023 41.106 23.6023 40.9497 23.6023 40.7933C22.6644 36.6509 23.6023 33.8372 23.6023 33.8372C23.6023 33.8372 20.4759 25.9432 27.8229 22.7386C32.5905 20.6284 36.0295 23.8329 37.749 26.3339C38.6869 27.6627 39.1559 28.835 39.1559 28.835C39.1559 28.835 42.673 28.2879 45.1741 37.0417C45.8776 39.5428 47.0499 42.8255 48.2223 46.4989C51.2705 55.409 54.475 66.2731 50.8797 70.4156Z" fill="url(#paint2_linear)"/>
<path d="M30.6387 28.3652C30.6387 28.3652 37.9856 44.0752 41.2683 52.2818C44.551 60.4885 48.6152 67.7573 49.5531 68.6952C50.491 69.6331 42.2843 53.6887 39.4706 46.4981C36.7351 39.3856 31.7329 28.4434 30.6387 28.3652Z" fill="#79D03E"/>
<path d="M29.4654 42.5893C29.3873 42.1985 37.125 45.4812 38.4537 45.7939C39.7824 46.1065 40.3295 37.0401 40.564 36.8837C40.8766 36.7274 40.564 46.2628 39.2353 46.7318C37.9847 47.0444 29.6217 43.3709 29.4654 42.5893Z" fill="#79D03E"/>
<path d="M26.7312 33.8354C26.653 33.5228 33.2184 36.2583 34.3126 36.4928C35.4068 36.7273 35.8757 29.0677 36.1102 28.9896C36.3447 28.8332 36.1102 36.8836 35.016 37.2744C33.9218 37.6652 26.8875 34.5388 26.7312 33.8354Z" fill="#79D03E"/>
<path d="M74.329 38.8356C74.0945 40.2425 73.4692 42.1183 72.2968 44.4631C68.1544 52.5916 61.3546 72.8347 53.5387 73.0692C53.0697 73.0692 52.1318 72.4439 50.9595 70.4118C49.9434 68.7705 48.771 66.1131 47.286 62.127C45.801 57.9846 46.7389 51.9663 48.3021 46.3389C50.0997 40.1643 52.679 34.5369 53.7732 32.6611C55.8835 28.9876 58.4627 28.3623 58.4627 28.3623C58.4627 28.3623 58.7754 27.8152 59.3225 27.1118C60.9638 24.9233 64.9499 20.9372 70.5773 22.8131C78.1588 25.3923 73.3911 34.3024 73.3911 34.3024C73.3911 34.3024 74.8761 35.3966 74.329 38.8356Z" fill="url(#paint3_linear)"/>
<path d="M67.2932 28.2871C67.2932 28.2871 62.1347 44.8568 59.0084 53.1416C55.882 61.4265 54.0062 69.4768 54.0844 70.8837C54.1625 72.2124 58.8521 54.8611 61.5876 47.7487C64.4014 40.5581 68.0748 29.1469 67.2932 28.2871Z" fill="#79D03E"/>
<path d="M56.8977 38.0562C57.0541 37.7435 60.6494 45.4031 61.4309 46.4973C62.2125 47.5916 68.6997 41.2607 69.0124 41.3389C69.325 41.417 62.6815 48.295 61.4309 47.7479C60.1804 47.1226 56.4288 38.7596 56.8977 38.0562Z" fill="#79D03E"/>
<path d="M60.7284 29.7709C60.8848 29.5364 63.8548 35.9455 64.5582 36.8834C65.1835 37.8213 70.6546 32.5065 70.9672 32.5065C71.2799 32.5846 65.6524 38.3684 64.5582 37.8994C63.464 37.4305 60.4158 30.3962 60.7284 29.7709Z" fill="#79D03E"/>
<path d="M58.9309 34.9305C58.6964 36.8063 58.4619 39.1511 58.3056 41.7303C57.524 51.891 56.4298 65.8814 50.5679 68.0699C49.7081 68.3825 46.8944 67.0538 41.1106 59.785C38.1406 56.1116 37.1246 49.6244 36.8901 43.528C36.6556 37.5098 37.2027 31.8823 37.6717 29.8502C38.4533 25.7078 40.7199 24.3009 40.7199 24.3009C40.7199 24.3009 41.1107 15 49.161 15C57.2114 15 56.8206 25.0825 56.8206 25.0825C56.8206 25.0825 60.1033 25.9422 58.9309 34.9305Z" fill="url(#paint4_linear)"/>
<path d="M48.9268 21.252C48.9268 21.252 49.4739 38.6032 49.2394 47.4352C49.0049 56.2671 49.8647 64.552 50.4118 65.8025C50.8807 67.053 49.7084 49.0765 49.9428 41.4169C50.1773 33.8355 49.9428 21.7991 48.9268 21.252Z" fill="#79D03E"/>
<path d="M42.2838 33.8363C42.3619 33.4455 48.2238 39.5419 49.3181 40.3235C50.4123 41.1051 54.4766 32.9766 54.7892 32.9766C55.1018 32.9766 51.1157 41.574 49.7089 41.4959C48.302 41.4177 42.0493 34.6961 42.2838 33.8363Z" fill="#79D03E"/>
<path d="M43.2212 24.7679C43.2994 24.4552 48.2234 29.5356 49.1613 30.239C50.0992 30.9424 53.5382 24.0645 53.7726 24.0645C54.0853 24.0645 50.6463 31.3332 49.4739 31.2551C48.3015 31.1769 43.0649 25.4713 43.2212 24.7679Z" fill="#79D03E"/>
<path d="M42.2836 43.8388C42.3618 43.448 48.38 49.6225 49.4742 50.4823C50.5685 51.342 54.789 42.979 55.1017 42.979C55.4925 42.9009 51.3501 51.811 49.9432 51.6547C48.4582 51.5765 42.0491 44.6985 42.2836 43.8388Z" fill="#79D03E"/>
<path fill-rule="evenodd" clip-rule="evenodd" d="M82.7354 36.8867L84.8379 39.2005L72.1814 50.701C72.177 58.9232 72.0976 81.8696 71.8726 82.0953C71.7953 82.1729 66.6191 82.4054 59.8977 82.5605C46.8411 82.8706 27.7585 83.1808 27.6813 82.8706C27.5567 82.4956 26.0766 60.506 25.5074 51.9945L12 40.8625L13.9883 38.4499L26.3777 48.6606L70.6644 47.8552L82.7354 36.8867Z" fill="url(#paint5_linear)"/>
<circle cx="49.8753" cy="65.5003" r="8.74056" fill="url(#paint6_linear)"/>
<ellipse cx="49.8756" cy="65.5006" rx="6.79821" ry="6.79821" transform="rotate(-180 49.8756 65.5006)" fill="url(#paint7_linear)"/>
<path d="M47.6443 68.6738L46.4763 66.5538H46.1483V68.6738H44.7803V63.0578H47.0763C47.519 63.0578 47.895 63.1352 48.2043 63.2898C48.519 63.4445 48.7536 63.6578 48.9083 63.9298C49.063 64.1965 49.1403 64.4952 49.1403 64.8258C49.1403 65.1992 49.0336 65.5325 48.8203 65.8258C48.6123 66.1192 48.303 66.3272 47.8923 66.4498L49.1883 68.6738H47.6443ZM46.1483 65.5858H46.9963C47.247 65.5858 47.4336 65.5245 47.5563 65.4018C47.6843 65.2792 47.7483 65.1058 47.7483 64.8818C47.7483 64.6685 47.6843 64.5005 47.5563 64.3778C47.4336 64.2552 47.247 64.1938 46.9963 64.1938H46.1483V65.5858ZM54.2791 64.8658C54.2791 65.1912 54.2044 65.4898 54.0551 65.7618C53.9057 66.0285 53.6764 66.2445 53.3671 66.4098C53.0577 66.5752 52.6737 66.6578 52.2151 66.6578H51.3671V68.6738H49.9991V63.0578H52.2151C52.6631 63.0578 53.0417 63.1352 53.3511 63.2898C53.6604 63.4445 53.8924 63.6578 54.0471 63.9298C54.2017 64.2018 54.2791 64.5138 54.2791 64.8658ZM52.1111 65.5698C52.3724 65.5698 52.5671 65.5085 52.6951 65.3858C52.8231 65.2632 52.8871 65.0898 52.8871 64.8658C52.8871 64.6418 52.8231 64.4685 52.6951 64.3458C52.5671 64.2232 52.3724 64.1618 52.1111 64.1618H51.3671V65.5698H52.1111Z" fill="#F8B165"/>
<defs>
<linearGradient id="paint0_linear" x1="53.0958" y1="12.0422" x2="53.0958" y2="49.1937" gradientUnits="userSpaceOnUse">
<stop stop-color="#6DED18" stop-opacity="0.12"/>
<stop offset="1" stop-color="#6DED18" stop-opacity="0.01"/>
</linearGradient>
<linearGradient id="paint1_linear" x1="-5.06565" y1="33.1255" x2="-5.06565" y2="110.985" gradientUnits="userSpaceOnUse">
<stop stop-color="#6DED18" stop-opacity="0.16"/>
<stop offset="1" stop-color="#6DED18" stop-opacity="0.01"/>
</linearGradient>
<linearGradient id="paint2_linear" x1="37.706" y1="22.0527" x2="37.706" y2="71.0102" gradientUnits="userSpaceOnUse">
<stop stop-color="#5FC51B"/>
<stop offset="0.662602" stop-color="#347D03"/>
</linearGradient>
<linearGradient id="paint3_linear" x1="63.1946" y1="18.1242" x2="60.7053" y2="73.0692" gradientUnits="userSpaceOnUse">
<stop stop-color="#5FC51B"/>
<stop offset="0.879144" stop-color="#347D03"/>
</linearGradient>
<linearGradient id="paint4_linear" x1="48.0089" y1="15" x2="47.9533" y2="60.7229" gradientUnits="userSpaceOnUse">
<stop offset="0.0245913" stop-color="#347D03"/>
<stop offset="0.695776" stop-color="#5FC51B"/>
</linearGradient>
<linearGradient id="paint5_linear" x1="46.4791" y1="36.8867" x2="44.3335" y2="91.5879" gradientUnits="userSpaceOnUse">
<stop offset="0.0775716" stop-color="#F47E00"/>
<stop offset="1" stop-color="#FACB99"/>
</linearGradient>
<linearGradient id="paint6_linear" x1="39.678" y1="55.303" x2="58.6159" y2="82.4959" gradientUnits="userSpaceOnUse">
<stop stop-color="#347D03"/>
<stop offset="0.897859" stop-color="#5DC11A"/>
</linearGradient>
<linearGradient id="paint7_linear" x1="41.9444" y1="57.5694" x2="56.6738" y2="78.7194" gradientUnits="userSpaceOnUse">
<stop stop-color="#347D03"/>
<stop offset="0.897859" stop-color="#5DC11A"/>
</linearGradient>
</defs>
</svg>
