<svg width="98" height="99" viewBox="0 0 98 99" fill="none" xmlns="http://www.w3.org/2000/svg">
<rect width="98" height="98" rx="15" fill="#F4FFEC"/>
<path d="M49 0H82.4634V45.3202C82.4634 47.4595 80.6799 49.1937 78.4797 49.1937H49V0Z" fill="url(#paint0_linear)"/>
<path d="M0 29.8271H61.3496C66.8499 29.8271 71.3089 34.1627 71.3089 39.5109V98.0011H9.95935C4.45896 98.0011 0 93.6654 0 88.3173V29.8271Z" fill="url(#paint1_linear)"/>
<rect x="44.209" y="44.9316" width="15.5366" height="2.71146" fill="white"/>
<rect x="48.5898" y="50.3545" width="6.77236" height="1.54941" fill="white"/>
<path d="M65.2018 25.0117L54.3564 46.1L62.7918 50.9202L73.0346 29.8319L65.2018 25.0117Z" fill="url(#paint2_linear)"/>
<path d="M81.8598 49.8832C80.4137 47.9552 56.353 35.8244 44.5034 30C42.5754 30.964 37.2732 43.2555 34.863 49.2807C31.4889 56.511 33.4571 63.5404 34.863 66.1513L60.169 78.8043C67.3992 79.7683 77.6421 59.9253 81.8598 49.8832Z" fill="url(#paint3_linear)"/>
<path d="M28.4479 74.4195C19.7716 72.4914 17.2008 78.4363 17 81.6498L71.227 81.0465C69.781 73.3342 63.3942 73.415 60.3816 74.4195C56.0434 63.815 46.9253 62.369 42.9085 62.9716C33.7501 62.4896 29.4521 70.4027 28.4479 74.4195Z" fill="url(#paint4_linear)"/>
<path d="M68.2687 16.3088C69.7933 13.3768 73.4061 12.236 76.3381 13.7606C79.27 15.2853 80.4109 18.8981 78.8862 21.83L74.2135 30.8158L63.596 25.2946L68.2687 16.3088Z" fill="url(#paint5_linear)"/>
<path d="M40.5 35C51.1667 41 73.7 53.4 78.5 55" stroke="#D97C18" stroke-width="0.7"/>
<defs>
<linearGradient id="paint0_linear" x1="53.0958" y1="12.0422" x2="53.0958" y2="49.1937" gradientUnits="userSpaceOnUse">
<stop stop-color="#6DED18" stop-opacity="0.12"/>
<stop offset="1" stop-color="#6DED18" stop-opacity="0.01"/>
</linearGradient>
<linearGradient id="paint1_linear" x1="-5.06565" y1="33.1255" x2="-5.06565" y2="110.985" gradientUnits="userSpaceOnUse">
<stop stop-color="#6DED18" stop-opacity="0.16"/>
<stop offset="1" stop-color="#6DED18" stop-opacity="0.01"/>
</linearGradient>
<linearGradient id="paint2_linear" x1="69.4195" y1="25.4613" x2="63.9968" y2="41.7294" gradientUnits="userSpaceOnUse">
<stop stop-color="#347D03"/>
<stop offset="1" stop-color="#5FC51B"/>
</linearGradient>
<linearGradient id="paint3_linear" x1="45" y1="31.5" x2="55.5" y2="79" gradientUnits="userSpaceOnUse">
<stop stop-color="#F47E00"/>
<stop offset="1" stop-color="#FACB99"/>
</linearGradient>
<linearGradient id="paint4_linear" x1="56.164" y1="68.843" x2="14.5899" y2="83.3036" gradientUnits="userSpaceOnUse">
<stop stop-color="#347D03"/>
<stop offset="1" stop-color="#5FC51B"/>
</linearGradient>
<linearGradient id="paint5_linear" x1="76.6497" y1="9.19243" x2="68.8169" y2="32.6908" gradientUnits="userSpaceOnUse">
<stop stop-color="#F47E00"/>
<stop offset="1" stop-color="#FACB99"/>
</linearGradient>
</defs>
</svg>
