<svg width="18" height="14" viewBox="0 0 18 14" fill="none" xmlns="http://www.w3.org/2000/svg">
<g id="youtube">
<path id="Path" d="M17.8138 3.03875C17.8138 3.03875 17.6276 1.67612 17.1 1.07405C16.4172 0.281828 15.6414 0.281828 15.3 0.250131C12.7862 0.0600177 9 0.0283203 9 0.0283203C9 0.0283203 5.21378 0.0600177 2.7 0.250131C2.35863 0.281828 1.58277 0.313525 0.9 1.07405C0.341367 1.67616 0.186223 3.03875 0.186223 3.03875C0.186223 3.03875 0 4.65489 0 6.27103V7.76041C0 9.37655 0.186223 10.961 0.186223 10.961C0.186223 10.961 0.372445 12.3236 0.9 12.9257C1.58277 13.7179 2.48277 13.6862 2.88622 13.7813C4.31378 13.9397 9 13.9714 9 13.9714C9 13.9714 12.7862 13.9714 15.3 13.7496C15.6414 13.7179 16.4172 13.6862 17.1 12.9257C17.6276 12.3236 17.8138 10.961 17.8138 10.961C17.8138 10.961 18 9.34482 18 7.76038V6.27099C18 4.65489 17.8138 3.03875 17.8138 3.03875Z" fill="#D8362A"/>
<path id="Path_2" d="M6.82764 3.79932V10.6758L12.7242 7.3168L6.82764 3.79932Z" fill="white"/>
</g>
</svg>
