<svg width="425" height="24" viewBox="0 0 425 24" fill="none" xmlns="http://www.w3.org/2000/svg">
<path d="M109 1V23" stroke="#D2D2D2"/>
<path d="M286 1V23" stroke="#D2D2D2"/>
<path d="M4.704 6.848C5.92 6.848 6.97067 7.07733 7.856 7.536C8.752 7.984 9.43467 8.62933 9.904 9.472C10.384 10.3147 10.624 11.3067 10.624 12.448C10.624 13.5893 10.384 14.5813 9.904 15.424C9.43467 16.256 8.752 16.896 7.856 17.344C6.97067 17.7813 5.92 18 4.704 18H1.232V6.848H4.704ZM4.704 16.8C6.144 16.8 7.24267 16.4213 8 15.664C8.75733 14.896 9.136 13.824 9.136 12.448C9.136 11.0613 8.752 9.97867 7.984 9.2C7.22667 8.42133 6.13333 8.032 4.704 8.032H2.688V16.8H4.704ZM13.2965 7.808C13.0192 7.808 12.7845 7.712 12.5925 7.52C12.4005 7.328 12.3045 7.09333 12.3045 6.816C12.3045 6.53867 12.4005 6.304 12.5925 6.112C12.7845 5.92 13.0192 5.824 13.2965 5.824C13.5632 5.824 13.7872 5.92 13.9685 6.112C14.1605 6.304 14.2565 6.53867 14.2565 6.816C14.2565 7.09333 14.1605 7.328 13.9685 7.52C13.7872 7.712 13.5632 7.808 13.2965 7.808ZM14.0005 9.232V18H12.5445V9.232H14.0005ZM19.586 18.144C18.914 18.144 18.3113 18.032 17.778 17.808C17.2447 17.5733 16.8233 17.2533 16.514 16.848C16.2047 16.432 16.034 15.9573 16.002 15.424H17.506C17.5487 15.8613 17.7513 16.2187 18.114 16.496C18.4873 16.7733 18.9727 16.912 19.57 16.912C20.1247 16.912 20.562 16.7893 20.882 16.544C21.202 16.2987 21.362 15.9893 21.362 15.616C21.362 15.232 21.1913 14.9493 20.85 14.768C20.5087 14.576 19.9807 14.3893 19.266 14.208C18.6153 14.0373 18.082 13.8667 17.666 13.696C17.2607 13.5147 16.9087 13.2533 16.61 12.912C16.322 12.56 16.178 12.1013 16.178 11.536C16.178 11.088 16.3113 10.6773 16.578 10.304C16.8447 9.93067 17.2233 9.63733 17.714 9.424C18.2047 9.2 18.7647 9.088 19.394 9.088C20.3647 9.088 21.1487 9.33333 21.746 9.824C22.3433 10.3147 22.6633 10.9867 22.706 11.84H21.25C21.218 11.3813 21.0313 11.0133 20.69 10.736C20.3593 10.4587 19.9113 10.32 19.346 10.32C18.8233 10.32 18.4073 10.432 18.098 10.656C17.7887 10.88 17.634 11.1733 17.634 11.536C17.634 11.824 17.7247 12.064 17.906 12.256C18.098 12.4373 18.3327 12.5867 18.61 12.704C18.898 12.8107 19.2927 12.9333 19.794 13.072C20.4233 13.2427 20.9353 13.4133 21.33 13.584C21.7247 13.744 22.0607 13.9893 22.338 14.32C22.626 14.6507 22.7753 15.0827 22.786 15.616C22.786 16.096 22.6527 16.528 22.386 16.912C22.1193 17.296 21.7407 17.6 21.25 17.824C20.77 18.0373 20.2153 18.144 19.586 18.144ZM29.7374 18L26.2974 14.128V18H24.8414V6.16H26.2974V13.12L29.6734 9.232H31.7054L27.5774 13.6L31.7214 18H29.7374ZM40.8518 9.232V18H39.3958V16.704C39.1184 17.152 38.7291 17.504 38.2278 17.76C37.7371 18.0053 37.1931 18.128 36.5958 18.128C35.9131 18.128 35.2998 17.9893 34.7558 17.712C34.2118 17.424 33.7798 16.9973 33.4598 16.432C33.1504 15.8667 32.9958 15.1787 32.9958 14.368V9.232H34.4358V14.176C34.4358 15.04 34.6544 15.7067 35.0918 16.176C35.5291 16.6347 36.1264 16.864 36.8838 16.864C37.6624 16.864 38.2758 16.624 38.7238 16.144C39.1718 15.664 39.3958 14.9653 39.3958 14.048V9.232H40.8518ZM46.4141 18.144C45.7421 18.144 45.1395 18.032 44.6061 17.808C44.0728 17.5733 43.6515 17.2533 43.3421 16.848C43.0328 16.432 42.8621 15.9573 42.8301 15.424H44.3341C44.3768 15.8613 44.5795 16.2187 44.9421 16.496C45.3155 16.7733 45.8008 16.912 46.3981 16.912C46.9528 16.912 47.3901 16.7893 47.7101 16.544C48.0301 16.2987 48.1901 15.9893 48.1901 15.616C48.1901 15.232 48.0195 14.9493 47.6781 14.768C47.3368 14.576 46.8088 14.3893 46.0941 14.208C45.4435 14.0373 44.9101 13.8667 44.4941 13.696C44.0888 13.5147 43.7368 13.2533 43.4381 12.912C43.1501 12.56 43.0061 12.1013 43.0061 11.536C43.0061 11.088 43.1395 10.6773 43.4061 10.304C43.6728 9.93067 44.0515 9.63733 44.5421 9.424C45.0328 9.2 45.5928 9.088 46.2221 9.088C47.1928 9.088 47.9768 9.33333 48.5741 9.824C49.1715 10.3147 49.4915 10.9867 49.5341 11.84H48.0781C48.0461 11.3813 47.8595 11.0133 47.5181 10.736C47.1875 10.4587 46.7395 10.32 46.1741 10.32C45.6515 10.32 45.2355 10.432 44.9261 10.656C44.6168 10.88 44.4621 11.1733 44.4621 11.536C44.4621 11.824 44.5528 12.064 44.7341 12.256C44.9261 12.4373 45.1608 12.5867 45.4381 12.704C45.7261 12.8107 46.1208 12.9333 46.6221 13.072C47.2515 13.2427 47.7635 13.4133 48.1581 13.584C48.5528 13.744 48.8888 13.9893 49.1661 14.32C49.4541 14.6507 49.6035 15.0827 49.6141 15.616C49.6141 16.096 49.4808 16.528 49.2141 16.912C48.9475 17.296 48.5688 17.6 48.0781 17.824C47.5981 18.0373 47.0435 18.144 46.4141 18.144ZM52.4215 7.808C52.1442 7.808 51.9095 7.712 51.7175 7.52C51.5255 7.328 51.4295 7.09333 51.4295 6.816C51.4295 6.53867 51.5255 6.304 51.7175 6.112C51.9095 5.92 52.1442 5.824 52.4215 5.824C52.6882 5.824 52.9122 5.92 53.0935 6.112C53.2855 6.304 53.3815 6.53867 53.3815 6.816C53.3815 7.09333 53.2855 7.328 53.0935 7.52C52.9122 7.712 52.6882 7.808 52.4215 7.808ZM53.1255 9.232V18H51.6695V9.232H53.1255Z" fill="#46505C"/>
<path d="M72.696 18.096C72.4187 18.096 72.184 18 71.992 17.808C71.8 17.616 71.704 17.3813 71.704 17.104C71.704 16.8267 71.8 16.592 71.992 16.4C72.184 16.208 72.4187 16.112 72.696 16.112C72.9627 16.112 73.1867 16.208 73.368 16.4C73.56 16.592 73.656 16.8267 73.656 17.104C73.656 17.3813 73.56 17.616 73.368 17.808C73.1867 18 72.9627 18.096 72.696 18.096ZM72.696 11.248C72.4187 11.248 72.184 11.152 71.992 10.96C71.8 10.768 71.704 10.5333 71.704 10.256C71.704 9.97867 71.8 9.744 71.992 9.552C72.184 9.36 72.4187 9.264 72.696 9.264C72.9627 9.264 73.1867 9.36 73.368 9.552C73.56 9.744 73.656 9.97867 73.656 10.256C73.656 10.5333 73.56 10.768 73.368 10.96C73.1867 11.152 72.9627 11.248 72.696 11.248ZM81.5359 14.896C81.6425 15.504 81.8879 15.9733 82.2719 16.304C82.6665 16.6347 83.1945 16.8 83.8559 16.8C84.7412 16.8 85.3919 16.4533 85.8079 15.76C86.2345 15.0667 86.4372 13.8987 86.4159 12.256C86.1919 12.736 85.8185 13.1147 85.2959 13.392C84.7732 13.6587 84.1919 13.792 83.5519 13.792C82.8372 13.792 82.1972 13.648 81.6319 13.36C81.0772 13.0613 80.6399 12.6293 80.3199 12.064C79.9999 11.4987 79.8399 10.816 79.8399 10.016C79.8399 8.87467 80.1705 7.95733 80.8319 7.264C81.4932 6.56 82.4319 6.208 83.6479 6.208C85.1412 6.208 86.1865 6.69333 86.7839 7.664C87.3919 8.63467 87.6959 10.08 87.6959 12C87.6959 13.344 87.5732 14.4533 87.3279 15.328C87.0932 16.2027 86.6879 16.8693 86.1119 17.328C85.5465 17.7867 84.7679 18.016 83.7759 18.016C82.6879 18.016 81.8399 17.7227 81.2319 17.136C80.6239 16.5493 80.2772 15.8027 80.1919 14.896H81.5359ZM83.7919 12.56C84.5065 12.56 85.0932 12.3413 85.5519 11.904C86.0105 11.456 86.2399 10.8533 86.2399 10.096C86.2399 9.296 86.0159 8.65067 85.5679 8.16C85.1199 7.66933 84.4905 7.424 83.6799 7.424C82.9332 7.424 82.3359 7.65867 81.8879 8.128C81.4505 8.59733 81.2319 9.216 81.2319 9.984C81.2319 10.7627 81.4505 11.3867 81.8879 11.856C82.3252 12.3253 82.9599 12.56 83.7919 12.56Z" fill="#46505C"/>
<path d="M131.656 6.848V13.904C131.656 14.896 131.896 15.632 132.376 16.112C132.867 16.592 133.544 16.832 134.408 16.832C135.261 16.832 135.928 16.592 136.408 16.112C136.899 15.632 137.144 14.896 137.144 13.904V6.848H138.6V13.888C138.6 14.816 138.413 15.6 138.04 16.24C137.667 16.8693 137.16 17.3387 136.52 17.648C135.891 17.9573 135.181 18.112 134.392 18.112C133.603 18.112 132.888 17.9573 132.248 17.648C131.619 17.3387 131.117 16.8693 130.744 16.24C130.381 15.6 130.2 14.816 130.2 13.888V6.848H131.656ZM142.485 10.848C142.773 10.3467 143.2 9.93067 143.765 9.6C144.341 9.25867 145.008 9.088 145.765 9.088C146.544 9.088 147.248 9.27467 147.877 9.648C148.517 10.0213 149.018 10.5493 149.381 11.232C149.744 11.904 149.925 12.688 149.925 13.584C149.925 14.4693 149.744 15.2587 149.381 15.952C149.018 16.6453 148.517 17.184 147.877 17.568C147.248 17.952 146.544 18.144 145.765 18.144C145.018 18.144 144.357 17.9787 143.781 17.648C143.216 17.3067 142.784 16.8853 142.485 16.384V22.16H141.029V9.232H142.485V10.848ZM148.437 13.584C148.437 12.9227 148.304 12.3467 148.037 11.856C147.77 11.3653 147.408 10.992 146.949 10.736C146.501 10.48 146.005 10.352 145.461 10.352C144.928 10.352 144.432 10.4853 143.973 10.752C143.525 11.008 143.162 11.3867 142.885 11.888C142.618 12.3787 142.485 12.9493 142.485 13.6C142.485 14.2613 142.618 14.8427 142.885 15.344C143.162 15.8347 143.525 16.2133 143.973 16.48C144.432 16.736 144.928 16.864 145.461 16.864C146.005 16.864 146.501 16.736 146.949 16.48C147.408 16.2133 147.77 15.8347 148.037 15.344C148.304 14.8427 148.437 14.256 148.437 13.584ZM151.297 13.584C151.297 12.688 151.479 11.904 151.841 11.232C152.204 10.5493 152.7 10.0213 153.329 9.648C153.969 9.27467 154.684 9.088 155.473 9.088C156.156 9.088 156.791 9.248 157.377 9.568C157.964 9.87733 158.412 10.288 158.721 10.8V6.16H160.193V18H158.721V16.352C158.433 16.8747 158.007 17.3067 157.441 17.648C156.876 17.9787 156.215 18.144 155.457 18.144C154.679 18.144 153.969 17.952 153.329 17.568C152.7 17.184 152.204 16.6453 151.841 15.952C151.479 15.2587 151.297 14.4693 151.297 13.584ZM158.721 13.6C158.721 12.9387 158.588 12.3627 158.321 11.872C158.055 11.3813 157.692 11.008 157.233 10.752C156.785 10.4853 156.289 10.352 155.745 10.352C155.201 10.352 154.705 10.48 154.257 10.736C153.809 10.992 153.452 11.3653 153.185 11.856C152.919 12.3467 152.785 12.9227 152.785 13.584C152.785 14.256 152.919 14.8427 153.185 15.344C153.452 15.8347 153.809 16.2133 154.257 16.48C154.705 16.736 155.201 16.864 155.745 16.864C156.289 16.864 156.785 16.736 157.233 16.48C157.692 16.2133 158.055 15.8347 158.321 15.344C158.588 14.8427 158.721 14.2613 158.721 13.6ZM162.11 13.584C162.11 12.688 162.291 11.904 162.654 11.232C163.017 10.5493 163.513 10.0213 164.142 9.648C164.782 9.27467 165.491 9.088 166.27 9.088C167.038 9.088 167.705 9.25333 168.27 9.584C168.835 9.91467 169.257 10.3307 169.534 10.832V9.232H171.006V18H169.534V16.368C169.246 16.88 168.814 17.3067 168.238 17.648C167.673 17.9787 167.011 18.144 166.254 18.144C165.475 18.144 164.771 17.952 164.142 17.568C163.513 17.184 163.017 16.6453 162.654 15.952C162.291 15.2587 162.11 14.4693 162.11 13.584ZM169.534 13.6C169.534 12.9387 169.401 12.3627 169.134 11.872C168.867 11.3813 168.505 11.008 168.046 10.752C167.598 10.4853 167.102 10.352 166.558 10.352C166.014 10.352 165.518 10.48 165.07 10.736C164.622 10.992 164.265 11.3653 163.998 11.856C163.731 12.3467 163.598 12.9227 163.598 13.584C163.598 14.256 163.731 14.8427 163.998 15.344C164.265 15.8347 164.622 16.2133 165.07 16.48C165.518 16.736 166.014 16.864 166.558 16.864C167.102 16.864 167.598 16.736 168.046 16.48C168.505 16.2133 168.867 15.8347 169.134 15.344C169.401 14.8427 169.534 14.2613 169.534 13.6ZM175.242 10.432V15.6C175.242 16.0267 175.333 16.3307 175.514 16.512C175.696 16.6827 176.01 16.768 176.458 16.768H177.53V18H176.218C175.408 18 174.8 17.8133 174.394 17.44C173.989 17.0667 173.786 16.4533 173.786 15.6V10.432H172.65V9.232H173.786V7.024H175.242V9.232H177.53V10.432H175.242ZM187.295 13.28C187.295 13.5573 187.279 13.8507 187.247 14.16H180.239C180.292 15.024 180.585 15.7013 181.119 16.192C181.663 16.672 182.319 16.912 183.087 16.912C183.716 16.912 184.239 16.768 184.655 16.48C185.081 16.1813 185.38 15.7867 185.551 15.296H187.119C186.884 16.1387 186.415 16.8267 185.711 17.36C185.007 17.8827 184.132 18.144 183.087 18.144C182.255 18.144 181.508 17.9573 180.847 17.584C180.196 17.2107 179.684 16.6827 179.311 16C178.937 15.3067 178.751 14.5067 178.751 13.6C178.751 12.6933 178.932 11.8987 179.295 11.216C179.657 10.5333 180.164 10.0107 180.815 9.648C181.476 9.27467 182.233 9.088 183.087 9.088C183.919 9.088 184.655 9.26933 185.295 9.632C185.935 9.99467 186.425 10.496 186.767 11.136C187.119 11.7653 187.295 12.48 187.295 13.28ZM185.791 12.976C185.791 12.4213 185.668 11.9467 185.423 11.552C185.177 11.1467 184.841 10.8427 184.415 10.64C183.999 10.4267 183.535 10.32 183.023 10.32C182.287 10.32 181.657 10.5547 181.135 11.024C180.623 11.4933 180.329 12.144 180.255 12.976H185.791Z" fill="#46505C"/>
<path d="M205.696 18.096C205.419 18.096 205.184 18 204.992 17.808C204.8 17.616 204.704 17.3813 204.704 17.104C204.704 16.8267 204.8 16.592 204.992 16.4C205.184 16.208 205.419 16.112 205.696 16.112C205.963 16.112 206.187 16.208 206.368 16.4C206.56 16.592 206.656 16.8267 206.656 17.104C206.656 17.3813 206.56 17.616 206.368 17.808C206.187 18 205.963 18.096 205.696 18.096ZM205.696 11.248C205.419 11.248 205.184 11.152 204.992 10.96C204.8 10.768 204.704 10.5333 204.704 10.256C204.704 9.97867 204.8 9.744 204.992 9.552C205.184 9.36 205.419 9.264 205.696 9.264C205.963 9.264 206.187 9.36 206.368 9.552C206.56 9.744 206.656 9.97867 206.656 10.256C206.656 10.5333 206.56 10.768 206.368 10.96C206.187 11.152 205.963 11.248 205.696 11.248ZM221.496 6.848V18H220.04V12.944H214.36V18H212.904V6.848H214.36V11.744H220.04V6.848H221.496ZM223.438 13.584C223.438 12.688 223.619 11.904 223.982 11.232C224.345 10.5493 224.841 10.0213 225.47 9.648C226.11 9.27467 226.819 9.088 227.598 9.088C228.366 9.088 229.033 9.25333 229.598 9.584C230.163 9.91467 230.585 10.3307 230.862 10.832V9.232H232.334V18H230.862V16.368C230.574 16.88 230.142 17.3067 229.566 17.648C229.001 17.9787 228.339 18.144 227.582 18.144C226.803 18.144 226.099 17.952 225.47 17.568C224.841 17.184 224.345 16.6453 223.982 15.952C223.619 15.2587 223.438 14.4693 223.438 13.584ZM230.862 13.6C230.862 12.9387 230.729 12.3627 230.462 11.872C230.195 11.3813 229.833 11.008 229.374 10.752C228.926 10.4853 228.43 10.352 227.886 10.352C227.342 10.352 226.846 10.48 226.398 10.736C225.95 10.992 225.593 11.3653 225.326 11.856C225.059 12.3467 224.926 12.9227 224.926 13.584C224.926 14.256 225.059 14.8427 225.326 15.344C225.593 15.8347 225.95 16.2133 226.398 16.48C226.846 16.736 227.342 16.864 227.886 16.864C228.43 16.864 228.926 16.736 229.374 16.48C229.833 16.2133 230.195 15.8347 230.462 15.344C230.729 14.8427 230.862 14.2613 230.862 13.6ZM236.251 10.656C236.507 10.1547 236.869 9.76533 237.339 9.488C237.819 9.21067 238.4 9.072 239.083 9.072V10.576H238.699C237.067 10.576 236.251 11.4613 236.251 13.232V18H234.795V9.232H236.251V10.656ZM241.515 7.808C241.238 7.808 241.003 7.712 240.811 7.52C240.619 7.328 240.523 7.09333 240.523 6.816C240.523 6.53867 240.619 6.304 240.811 6.112C241.003 5.92 241.238 5.824 241.515 5.824C241.782 5.824 242.006 5.92 242.187 6.112C242.379 6.304 242.475 6.53867 242.475 6.816C242.475 7.09333 242.379 7.328 242.187 7.52C242.006 7.712 241.782 7.808 241.515 7.808ZM242.219 9.232V18H240.763V9.232H242.219ZM249.718 7.808C249.441 7.808 249.206 7.712 249.014 7.52C248.822 7.328 248.726 7.09333 248.726 6.816C248.726 6.53867 248.822 6.304 249.014 6.112C249.206 5.92 249.441 5.824 249.718 5.824C249.985 5.824 250.209 5.92 250.39 6.112C250.582 6.304 250.678 6.53867 250.678 6.816C250.678 7.09333 250.582 7.328 250.39 7.52C250.209 7.712 249.985 7.808 249.718 7.808ZM250.422 9.232V18H248.966V9.232H250.422ZM257.176 9.072C258.243 9.072 259.107 9.39733 259.768 10.048C260.429 10.688 260.76 11.616 260.76 12.832V18H259.32V13.04C259.32 12.1653 259.101 11.4987 258.664 11.04C258.227 10.5707 257.629 10.336 256.872 10.336C256.104 10.336 255.491 10.576 255.032 11.056C254.584 11.536 254.36 12.2347 254.36 13.152V18H252.904V9.232H254.36V10.48C254.648 10.032 255.037 9.68533 255.528 9.44C256.029 9.19467 256.579 9.072 257.176 9.072ZM263.89 7.808C263.613 7.808 263.378 7.712 263.186 7.52C262.994 7.328 262.898 7.09333 262.898 6.816C262.898 6.53867 262.994 6.304 263.186 6.112C263.378 5.92 263.613 5.824 263.89 5.824C264.157 5.824 264.381 5.92 264.562 6.112C264.754 6.304 264.85 6.53867 264.85 6.816C264.85 7.09333 264.754 7.328 264.562 7.52C264.381 7.712 264.157 7.808 263.89 7.808ZM264.594 9.232V18H263.138V9.232H264.594Z" fill="#46505C"/>
<path d="M310.704 6.848C311.92 6.848 312.971 7.07733 313.856 7.536C314.752 7.984 315.435 8.62933 315.904 9.472C316.384 10.3147 316.624 11.3067 316.624 12.448C316.624 13.5893 316.384 14.5813 315.904 15.424C315.435 16.256 314.752 16.896 313.856 17.344C312.971 17.7813 311.92 18 310.704 18H307.232V6.848H310.704ZM310.704 16.8C312.144 16.8 313.243 16.4213 314 15.664C314.757 14.896 315.136 13.824 315.136 12.448C315.136 11.0613 314.752 9.97867 313.984 9.2C313.227 8.42133 312.133 8.032 310.704 8.032H308.688V16.8H310.704ZM319.297 7.808C319.019 7.808 318.785 7.712 318.593 7.52C318.401 7.328 318.305 7.09333 318.305 6.816C318.305 6.53867 318.401 6.304 318.593 6.112C318.785 5.92 319.019 5.824 319.297 5.824C319.563 5.824 319.787 5.92 319.969 6.112C320.161 6.304 320.257 6.53867 320.257 6.816C320.257 7.09333 320.161 7.328 319.969 7.52C319.787 7.712 319.563 7.808 319.297 7.808ZM320.001 9.232V18H318.545V9.232H320.001ZM323.938 6.16V18H322.482V6.16H323.938ZM327.172 7.808C326.894 7.808 326.66 7.712 326.468 7.52C326.276 7.328 326.18 7.09333 326.18 6.816C326.18 6.53867 326.276 6.304 326.468 6.112C326.66 5.92 326.894 5.824 327.172 5.824C327.438 5.824 327.662 5.92 327.844 6.112C328.036 6.304 328.132 6.53867 328.132 6.816C328.132 7.09333 328.036 7.328 327.844 7.52C327.662 7.712 327.438 7.808 327.172 7.808ZM327.876 9.232V18H326.42V9.232H327.876ZM334.709 9.072C335.37 9.072 335.968 9.216 336.501 9.504C337.034 9.78133 337.45 10.2027 337.749 10.768C338.058 11.3333 338.213 12.0213 338.213 12.832V18H336.773V13.04C336.773 12.1653 336.554 11.4987 336.117 11.04C335.68 10.5707 335.082 10.336 334.325 10.336C333.557 10.336 332.944 10.576 332.485 11.056C332.037 11.536 331.813 12.2347 331.813 13.152V18H330.357V6.16H331.813V10.48C332.101 10.032 332.496 9.68533 332.997 9.44C333.509 9.19467 334.08 9.072 334.709 9.072ZM340.047 13.584C340.047 12.688 340.229 11.904 340.591 11.232C340.954 10.5493 341.45 10.0213 342.079 9.648C342.719 9.27467 343.429 9.088 344.207 9.088C344.975 9.088 345.642 9.25333 346.207 9.584C346.773 9.91467 347.194 10.3307 347.471 10.832V9.232H348.943V18H347.471V16.368C347.183 16.88 346.751 17.3067 346.175 17.648C345.61 17.9787 344.949 18.144 344.191 18.144C343.413 18.144 342.709 17.952 342.079 17.568C341.45 17.184 340.954 16.6453 340.591 15.952C340.229 15.2587 340.047 14.4693 340.047 13.584ZM347.471 13.6C347.471 12.9387 347.338 12.3627 347.071 11.872C346.805 11.3813 346.442 11.008 345.983 10.752C345.535 10.4853 345.039 10.352 344.495 10.352C343.951 10.352 343.455 10.48 343.007 10.736C342.559 10.992 342.202 11.3653 341.935 11.856C341.669 12.3467 341.535 12.9227 341.535 13.584C341.535 14.256 341.669 14.8427 341.935 15.344C342.202 15.8347 342.559 16.2133 343.007 16.48C343.455 16.736 343.951 16.864 344.495 16.864C345.039 16.864 345.535 16.736 345.983 16.48C346.442 16.2133 346.805 15.8347 347.071 15.344C347.338 14.8427 347.471 14.2613 347.471 13.6ZM353.18 10.432V15.6C353.18 16.0267 353.271 16.3307 353.452 16.512C353.633 16.6827 353.948 16.768 354.396 16.768H355.468V18H354.156C353.345 18 352.737 17.8133 352.332 17.44C351.927 17.0667 351.724 16.4533 351.724 15.6V10.432H350.588V9.232H351.724V7.024H353.18V9.232H355.468V10.432H353.18Z" fill="#46505C"/>
<path d="M382.696 18.096C382.419 18.096 382.184 18 381.992 17.808C381.8 17.616 381.704 17.3813 381.704 17.104C381.704 16.8267 381.8 16.592 381.992 16.4C382.184 16.208 382.419 16.112 382.696 16.112C382.963 16.112 383.187 16.208 383.368 16.4C383.56 16.592 383.656 16.8267 383.656 17.104C383.656 17.3813 383.56 17.616 383.368 17.808C383.187 18 382.963 18.096 382.696 18.096ZM382.696 11.248C382.419 11.248 382.184 11.152 381.992 10.96C381.8 10.768 381.704 10.5333 381.704 10.256C381.704 9.97867 381.8 9.744 381.992 9.552C382.184 9.36 382.419 9.264 382.696 9.264C382.963 9.264 383.187 9.36 383.368 9.552C383.56 9.744 383.656 9.97867 383.656 10.256C383.656 10.5333 383.56 10.768 383.368 10.96C383.187 11.152 382.963 11.248 382.696 11.248ZM389.28 7.76V6.432H392.288V18H390.816V7.76H389.28ZM394.437 15.424V14.32L400.053 6.544H401.797V14.16H403.397V15.424H401.797V18H400.357V15.424H394.437ZM400.421 8.064L396.117 14.16H400.421V8.064ZM412.227 7.696H406.611V11.344C406.857 11.0027 407.219 10.7253 407.699 10.512C408.179 10.288 408.697 10.176 409.251 10.176C410.137 10.176 410.857 10.3627 411.411 10.736C411.966 11.0987 412.361 11.5733 412.595 12.16C412.841 12.736 412.963 13.3493 412.963 14C412.963 14.768 412.819 15.456 412.531 16.064C412.243 16.672 411.801 17.152 411.203 17.504C410.617 17.856 409.886 18.032 409.011 18.032C407.891 18.032 406.985 17.744 406.291 17.168C405.598 16.592 405.177 15.824 405.027 14.864H406.451C406.59 15.472 406.883 15.9467 407.331 16.288C407.779 16.6293 408.345 16.8 409.027 16.8C409.87 16.8 410.505 16.5493 410.931 16.048C411.358 15.536 411.571 14.864 411.571 14.032C411.571 13.2 411.358 12.56 410.931 12.112C410.505 11.6533 409.875 11.424 409.043 11.424C408.478 11.424 407.982 11.5627 407.555 11.84C407.139 12.1067 406.835 12.4747 406.643 12.944H405.267V6.416H412.227V7.696ZM421.346 9.184C421.112 8 420.381 7.408 419.154 7.408C418.205 7.408 417.496 7.776 417.026 8.512C416.557 9.23733 416.328 10.4373 416.338 12.112C416.584 11.5573 416.989 11.1253 417.554 10.816C418.13 10.496 418.77 10.336 419.474 10.336C420.573 10.336 421.448 10.6773 422.098 11.36C422.76 12.0427 423.09 12.9867 423.09 14.192C423.09 14.9173 422.946 15.568 422.658 16.144C422.381 16.72 421.954 17.1787 421.378 17.52C420.813 17.8613 420.125 18.032 419.314 18.032C418.216 18.032 417.357 17.7867 416.738 17.296C416.12 16.8053 415.688 16.128 415.442 15.264C415.197 14.4 415.074 13.3333 415.074 12.064C415.074 8.14933 416.44 6.192 419.17 6.192C420.216 6.192 421.037 6.47467 421.634 7.04C422.232 7.60533 422.584 8.32 422.69 9.184H421.346ZM419.17 11.568C418.712 11.568 418.28 11.664 417.874 11.856C417.469 12.0373 417.138 12.32 416.882 12.704C416.637 13.0773 416.514 13.536 416.514 14.08C416.514 14.8907 416.749 15.552 417.218 16.064C417.688 16.5653 418.36 16.816 419.234 16.816C419.981 16.816 420.573 16.5867 421.01 16.128C421.458 15.6587 421.682 15.0293 421.682 14.24C421.682 13.408 421.469 12.7573 421.042 12.288C420.616 11.808 419.992 11.568 419.17 11.568Z" fill="#46505C"/>
</svg>
