<svg width="20" height="24" viewBox="0 0 20 24" fill="none" xmlns="http://www.w3.org/2000/svg">
<mask id="path-1-inside-1" fill="white">
<path fill-rule="evenodd" clip-rule="evenodd" d="M15.3353 5.72051C15.3353 8.53099 12.9418 10.8176 10 10.8176C7.0582 10.8176 4.66473 8.53099 4.66473 5.72051C4.66473 2.91001 7.0582 0.623413 10 0.623413C12.9418 0.623413 15.3353 2.91001 15.3353 5.72051ZM7.58017 11.0073C3.39376 11.0073 0 14.2495 0 18.249V22.9841C0 23.2917 0.261059 23.5411 0.58309 23.5411H19.4169C19.739 23.5411 20 23.2917 20 22.9841V18.249C20 14.2495 16.6062 11.0073 12.4198 11.0073H7.58017Z"/>
</mask>
<path d="M10 11.8176C13.4506 11.8176 16.3353 9.12582 16.3353 5.72051H14.3353C14.3353 7.93615 12.4331 9.81761 10 9.81761V11.8176ZM3.66473 5.72051C3.66473 9.12582 6.54945 11.8176 10 11.8176V9.81761C7.56695 9.81761 5.66473 7.93615 5.66473 5.72051H3.66473ZM10 -0.376587C6.54945 -0.376587 3.66473 2.31517 3.66473 5.72051H5.66473C5.66473 3.50485 7.56695 1.62341 10 1.62341V-0.376587ZM16.3353 5.72051C16.3353 2.31517 13.4506 -0.376587 10 -0.376587V1.62341C12.4331 1.62341 14.3353 3.50485 14.3353 5.72051H16.3353ZM1 18.249C1 14.8444 3.90252 12.0073 7.58017 12.0073V10.0073C2.88501 10.0073 -1 13.6547 -1 18.249H1ZM1 22.9841V18.249H-1V22.9841H1ZM0.58309 22.5411C0.769801 22.5411 1 22.6969 1 22.9841H-1C-1 23.8866 -0.247683 24.5411 0.58309 24.5411V22.5411ZM19.4169 22.5411H0.58309V24.5411H19.4169V22.5411ZM19 22.9841C19 22.6969 19.2302 22.5411 19.4169 22.5411V24.5411C20.2477 24.5411 21 23.8866 21 22.9841H19ZM19 18.249V22.9841H21V18.249H19ZM12.4198 12.0073C16.0975 12.0073 19 14.8444 19 18.249H21C21 13.6547 17.115 10.0073 12.4198 10.0073V12.0073ZM7.58017 12.0073H12.4198V10.0073H7.58017V12.0073Z" fill="white" mask="url(#path-1-inside-1)"/>
</svg>
