<svg width="24" height="24" viewBox="0 0 24 24" fill="none" xmlns="http://www.w3.org/2000/svg">
<g clip-path="url(#clip0)">
<path d="M23.6212 3.97846L22.9012 0.348058C22.8581 0.131358 22.6476 -0.00939192 22.4309 0.0336081C22.4309 0.0336081 22.4308 0.0336081 22.4308 0.0336581L2.6124 3.97406H2C1.7791 3.97406 1.6 4.15316 1.6 4.37406V6.41406C0.667655 6.60246 -0.00204531 7.42286 4.69349e-06 8.37406V21.9741C0.00130469 23.0781 0.896004 23.9728 2 23.9741H23.6C23.8209 23.9741 24 23.795 24 23.5741V4.37406C23.998 4.16286 23.8321 3.98961 23.6212 3.97846ZM22.1936 0.896458L22.8048 3.97406H6.7148L22.1936 0.896458ZM1.1468 7.52526L1.1488 7.52686C1.2765 7.40016 1.43055 7.30321 1.6 7.24286V9.50086C1.5912 9.49806 1.5824 9.49606 1.5736 9.49286C1.52195 9.47231 1.47185 9.44811 1.4236 9.42046C1.3996 9.40726 1.374 9.39686 1.3508 9.38046C1.2789 9.33521 1.2119 9.28266 1.1508 9.22366C0.681955 8.75521 0.680154 7.99586 1.1468 7.52526ZM23.2 18.3741H17.6V15.1741H23.2V18.3741ZM23.2 14.3741H17.2C16.9791 14.3741 16.8 14.5532 16.8 14.7741V18.7741C16.8 18.995 16.9791 19.1741 17.2 19.1741H23.2V23.1741H2C1.33725 23.1741 0.800004 22.6368 0.800004 21.9741V9.97406C0.818004 9.98766 0.838004 9.99686 0.856404 10.0097C0.891604 10.0345 0.928004 10.0557 0.964404 10.0781C1.03175 10.1192 1.1015 10.1563 1.1732 10.1893C1.2132 10.2073 1.2532 10.2249 1.2932 10.2401C1.37015 10.2688 1.44885 10.2926 1.5288 10.3113C1.566 10.3205 1.602 10.3321 1.6396 10.3389C1.7584 10.3615 1.87905 10.3733 2 10.3741H23.2V14.3741ZM10.0284 9.57406C10.2481 8.04336 11.6671 6.98056 13.1978 7.20026C14.4283 7.37686 15.395 8.34361 15.5716 9.57406H10.0284ZM23.2 9.57406H16.3764C16.1491 7.59886 14.3636 6.18191 12.3884 6.40921C10.7262 6.60051 9.41485 7.91181 9.2236 9.57406H2.4V4.77406H23.2V9.57406Z" fill="white"/>
<path d="M22.0001 5.5741H19.6001V6.3741H21.6001V8.37409H22.4001V5.9741C22.4001 5.75315 22.221 5.5741 22.0001 5.5741Z" fill="white"/>
<path d="M3.6002 5.5741C3.3793 5.5741 3.2002 5.7532 3.2002 5.9741V8.37409H4.0002V6.3741H6.0002V5.5741H3.6002Z" fill="white"/>
<path d="M19.1999 16.3741H18.3999V17.1741H19.1999V16.3741Z" fill="white"/>
</g>
<defs>
<clipPath id="clip0">
<rect width="24" height="24" fill="white"/>
</clipPath>
</defs>
</svg>
