<svg width="24" height="24" viewBox="0 0 24 24" fill="none" xmlns="http://www.w3.org/2000/svg">
<g clip-path="url(#clip0)">
<path d="M23.2502 12.4968H22.9902C23.0002 12.3368 23.0002 12.1668 23.0002 11.9968C23.0002 11.8268 23.0002 11.6568 22.9902 11.4968H23.2502C23.5302 11.4968 23.7502 11.7268 23.7502 11.9968C23.7502 12.2768 23.5302 12.4968 23.2502 12.4968Z" fill="white"/>
<path d="M22.9902 11.4968C23.0002 11.6568 23.0002 11.8268 23.0002 11.9968C23.0002 12.1668 23.0002 12.3368 22.9902 12.4968H21.2402C20.9602 12.4968 20.7402 12.2768 20.7402 11.9968C20.7402 11.7268 20.9602 11.4968 21.2402 11.4968H22.9902Z" fill="white"/>
<path d="M20.51 4.12683L21.01 4.99683C20.89 5.06683 20.77 5.12683 20.64 5.19683C20.43 4.92683 20.2 4.66683 19.96 4.41683C20.15 4.31683 20.34 4.22683 20.51 4.12683Z" fill="white"/>
<path d="M20.64 5.19687C19.68 5.68687 18.55 6.09687 17.32 6.39687C17.24 6.05687 17.15 5.73687 17.04 5.42687C18.12 5.16687 19.11 4.82687 19.96 4.41687C20.2 4.66687 20.43 4.92687 20.64 5.19687Z" fill="white"/>
<path d="M17.9601 10.667C17.9701 10.937 17.7601 11.177 17.4901 11.187C17.2201 11.197 16.9701 10.997 16.9601 10.717C16.8801 9.23697 16.6601 7.83697 16.3301 6.59697C16.6601 6.53697 16.9901 6.46697 17.3201 6.39697C17.6601 7.68697 17.8801 9.11697 17.9601 10.667Z" fill="white"/>
<path d="M17.3203 6.39688C16.9903 6.46688 16.6603 6.53688 16.3303 6.59688C16.2503 6.26688 16.1603 5.94688 16.0503 5.63688C16.3903 5.57688 16.7203 5.50688 17.0403 5.42688C17.1503 5.73688 17.2403 6.05688 17.3203 6.39688Z" fill="white"/>
<path d="M15.91 11.4968C16.19 11.4968 16.41 11.7268 16.41 11.9968C16.41 12.2768 16.19 12.4968 15.91 12.4968H12.5V11.4968H15.91Z" fill="white"/>
<path d="M14.83 1.36696C15.73 2.30696 16.5 3.70696 17.04 5.42696C16.72 5.50696 16.39 5.57696 16.05 5.63696C15.23 3.12696 13.94 1.38696 12.5 1.05696V1.00696C13.3 1.04696 14.08 1.16696 14.83 1.36696Z" fill="white"/>
<path d="M16.33 6.59684C15.12 6.83684 13.83 6.96684 12.5 6.98684V5.98684C13.73 5.96684 14.93 5.84684 16.05 5.63684C16.16 5.94684 16.25 6.26684 16.33 6.59684Z" fill="white"/>
<path d="M19.96 4.41696C18.58 2.96696 16.82 1.89696 14.83 1.36696C14.07 0.566958 13.21 0.096958 12.29 0.00695801C18.78 0.156958 24 5.48696 24 11.997C24 12.757 23.93 13.487 23.8 14.167C23.75 14.437 23.49 14.617 23.22 14.557C22.94 14.507 22.77 14.247 22.82 13.977C22.91 13.507 22.97 13.017 22.99 12.497H23.25C23.53 12.497 23.75 12.277 23.75 11.997C23.75 11.727 23.53 11.497 23.25 11.497H22.99C22.88 9.11696 22.02 6.94696 20.64 5.19696C20.77 5.12696 20.89 5.06696 21.01 4.99696L20.51 4.12696C20.34 4.22696 20.15 4.31696 19.96 4.41696Z" fill="white"/>
<path d="M18 20.9968H13C12.45 20.9968 12 20.5468 12 19.9968V16.9968C12 16.4468 12.45 15.9968 13 15.9968H18V13.4968C18 13.2968 18.12 13.1168 18.31 13.0368C18.5 12.9568 18.71 13.0068 18.85 13.1468L23.85 18.1468C24.05 18.3368 24.05 18.6568 23.85 18.8568L18.85 23.8568C18.76 23.9468 18.63 23.9968 18.5 23.9968C18.44 23.9968 18.37 23.9868 18.31 23.9668C18.12 23.8868 18 23.7068 18 23.4968V20.9968ZM18.5 16.9968H13V19.9968H18.5C18.78 19.9968 19 20.2268 19 20.4968V22.2968L22.79 18.4968L19 14.7068V16.4968C19 16.7768 18.78 16.9968 18.5 16.9968Z" fill="white"/>
<path d="M12.5 12.4969V13.4969C12.5 13.7769 12.28 13.9969 12 13.9969C11.72 13.9969 11.5 13.7769 11.5 13.4969V12.4969H12.5Z" fill="white"/>
<path d="M11.5 11.4968H12.5V12.4968H11.5V11.4968Z" fill="white"/>
<path d="M12.5 6.98694V11.4969H11.5V6.98694C11.66 6.99694 11.83 6.99694 12 6.99694C12.17 6.99694 12.34 6.99694 12.5 6.98694Z" fill="white"/>
<path d="M12 6.99694C11.83 6.99694 11.66 6.99694 11.5 6.98694V5.98694C11.66 5.99694 11.83 5.99694 12 5.99694C12.17 5.99694 12.34 5.99694 12.5 5.98694V6.98694C12.34 6.99694 12.17 6.99694 12 6.99694Z" fill="white"/>
<path d="M12.5 1.05683V5.98683C12.34 5.99683 12.17 5.99683 12 5.99683C11.83 5.99683 11.66 5.99683 11.5 5.98683V1.05683C11.66 1.01683 11.83 0.996826 12 0.996826C12.17 0.996826 12.34 1.01683 12.5 1.05683Z" fill="white"/>
<path d="M12.5 1.00683V1.05683C12.34 1.01683 12.17 0.996826 12 0.996826C12.17 0.996826 12.33 0.996826 12.5 1.00683Z" fill="white"/>
<path d="M12.0002 23.9969C10.9702 23.9969 10.0202 23.507 9.18018 22.627C10.0802 22.867 11.0202 22.997 12.0002 22.997C12.2802 22.997 12.5002 23.227 12.5002 23.4969C12.5002 23.7769 12.2802 23.9969 12.0002 23.9969Z" fill="white"/>
<path d="M11.5 1.00683V0.746826C11.5 0.476826 11.72 0.246826 12 0.246826C12.28 0.246826 12.5 0.476826 12.5 0.746826V1.00683C12.33 0.996826 12.17 0.996826 12 0.996826C11.83 0.996826 11.67 0.996826 11.5 1.00683Z" fill="white"/>
<path d="M11.5 1.00683C11.67 0.996826 11.83 0.996826 12 0.996826C11.83 0.996826 11.66 1.01683 11.5 1.05683V1.00683Z" fill="white"/>
<path d="M11.5 11.4968V12.4968H7.01C7 12.3268 7 12.1668 7 11.9968C7 11.8268 7 11.6668 7.01 11.4968H11.5Z" fill="white"/>
<path d="M12.0002 0.24707C11.7202 0.24707 11.5002 0.47707 11.5002 0.74707V1.00707C10.7002 1.04707 9.93018 1.16707 9.18018 1.36707C10.0202 0.48707 10.9702 -0.00292969 12.0002 -0.00292969C12.1002 -0.00292969 12.1902 -0.00292969 12.2902 0.00707031C13.2102 0.0970703 14.0702 0.56707 14.8302 1.36707C14.0802 1.16707 13.3002 1.04707 12.5002 1.00707V0.74707C12.5002 0.47707 12.2802 0.24707 12.0002 0.24707Z" fill="white"/>
<path d="M7.94992 5.63684C9.06992 5.84684 10.2699 5.96684 11.4999 5.98684V6.98684C10.1699 6.96684 8.87992 6.83684 7.66992 6.59684C7.74992 6.26684 7.84992 5.94684 7.94992 5.63684Z" fill="white"/>
<path d="M9.54992 18.127C8.99992 18.187 8.46992 18.267 7.94992 18.367C7.84992 18.057 7.74992 17.727 7.66992 17.397C8.24992 17.287 8.83992 17.197 9.44992 17.137C9.72992 17.097 9.96992 17.307 9.99992 17.577C10.0299 17.857 9.82992 18.097 9.54992 18.127Z" fill="white"/>
<path d="M6.95996 5.42696C7.50996 3.70696 8.26996 2.30696 9.17996 1.36696C9.92996 1.16696 10.7 1.04696 11.5 1.00696V1.05696C10.06 1.38696 8.76996 3.13696 7.94996 5.63696C7.60996 5.57696 7.27996 5.50696 6.95996 5.42696Z" fill="white"/>
<path d="M9.17996 22.6269C8.26996 21.6869 7.50996 20.2869 6.95996 18.5669C7.27996 18.4869 7.60996 18.4169 7.94996 18.3669C8.86996 21.1469 10.36 22.9969 12 22.9969C11.02 22.9969 10.08 22.8669 9.17996 22.6269Z" fill="white"/>
<path d="M6.95992 5.42688C7.27992 5.50688 7.60992 5.57688 7.94992 5.63688C7.84992 5.94688 7.74992 6.26688 7.66992 6.59688C7.32992 6.53688 6.99992 6.46688 6.66992 6.39688C6.75992 6.05688 6.84992 5.73688 6.95992 5.42688Z" fill="white"/>
<path d="M6.67969 17.617C6.99969 17.527 7.33969 17.457 7.66969 17.397C7.74969 17.727 7.84969 18.057 7.94969 18.367C7.60969 18.417 7.27969 18.487 6.95969 18.567C6.84969 18.257 6.75969 17.947 6.67969 17.617Z" fill="white"/>
<path d="M6.01025 11.497C6.04025 9.64697 6.28025 7.91697 6.67025 6.39697C7.00025 6.46697 7.33025 6.53697 7.67025 6.59697C7.28025 8.06697 7.04025 9.73697 7.01025 11.497H6.01025Z" fill="white"/>
<path d="M6.68025 17.617C6.28025 16.097 6.04025 14.3569 6.01025 12.4969H7.01025C7.04025 14.2569 7.28025 15.9269 7.67025 17.3969C7.34025 17.4569 7.00025 17.527 6.68025 17.617Z" fill="white"/>
<path d="M6.01 12.4968C6 12.3268 6 12.1668 6 11.9968C6 11.8268 6 11.6668 6.01 11.4968H7.01C7 11.6668 7 11.8268 7 11.9968C7 12.1668 7 12.3268 7.01 12.4968H6.01Z" fill="white"/>
<path d="M6.95986 5.42687C6.84986 5.73687 6.75986 6.05687 6.66986 6.39687C5.43986 6.09687 4.31986 5.69687 3.35986 5.19687C3.56986 4.92687 3.79986 4.66687 4.03986 4.41687C4.88986 4.82687 5.87986 5.16687 6.95986 5.42687Z" fill="white"/>
<path d="M6 11.9968C6 12.1668 6 12.3268 6.01 12.4968H1.01C1 12.3268 1 12.1668 1 11.9968C1 11.8268 1 11.6568 1.01 11.4968H6.01C6 11.6668 6 11.8268 6 11.9968Z" fill="white"/>
<path d="M6.95986 18.5669C5.87986 18.8269 4.88986 19.1769 4.03986 19.5869C3.79986 19.3369 3.57986 19.0769 3.35986 18.8069C4.30986 18.3169 5.43986 17.9069 6.67986 17.6169C6.75986 17.9469 6.84986 18.2569 6.95986 18.5669Z" fill="white"/>
<path d="M3.48975 4.12683C3.65975 4.22683 3.84975 4.31683 4.03974 4.41683C3.79975 4.66683 3.56975 4.92683 3.35975 5.19683C3.22975 5.12683 3.10975 5.06683 2.98975 4.99683L3.48975 4.12683Z" fill="white"/>
<path d="M3.36021 18.8069C3.58021 19.0769 3.80021 19.3369 4.04021 19.5869C3.85021 19.6769 3.66021 19.7769 3.49021 19.8769C3.41021 19.9169 3.32021 19.9369 3.24021 19.9369C3.11021 19.9369 2.98021 19.8869 2.89021 19.7969C2.86021 19.7669 2.83021 19.7269 2.80021 19.6869C2.67021 19.4469 2.75021 19.1369 2.99021 19.0069C3.11021 18.9369 3.23021 18.8769 3.36021 18.8069Z" fill="white"/>
<path d="M4.04014 19.5869C5.42014 21.0369 7.19014 22.1069 9.18014 22.6269C10.0201 23.5069 10.9701 23.9969 12.0001 23.9969C8.36014 23.9969 5.09014 22.3669 2.89014 19.7969C2.98014 19.8869 3.11014 19.9369 3.24014 19.9369C3.32014 19.9369 3.41014 19.9169 3.49014 19.8769C3.66014 19.7769 3.85014 19.6769 4.04014 19.5869Z" fill="white"/>
<path d="M1.01 11.4968C1 11.6568 1 11.8268 1 11.9968C1 12.1668 1 12.3268 1.01 12.4968H0.75C0.47 12.4968 0.25 12.2768 0.25 11.9968C0.25 11.7268 0.47 11.4968 0.75 11.4968H1.01Z" fill="white"/>
<path d="M9.18 1.3667C7.19 1.8867 5.42 2.9667 4.04 4.4167C3.85 4.3167 3.66 4.2267 3.49 4.1267L2.99 4.9967C3.11 5.0667 3.23 5.1267 3.36 5.1967C1.98 6.9467 1.12 9.1167 1.01 11.4967H0.75C0.47 11.4967 0.25 11.7267 0.25 11.9967C0.25 12.2767 0.47 12.4967 0.75 12.4967H1.01C1.12 14.8667 1.98 17.0567 3.36 18.8067C3.23 18.8767 3.11 18.9367 2.99 19.0067C2.75 19.1367 2.67 19.4467 2.8 19.6867C1.05 17.6067 0 14.9267 0 11.9967C0 5.3867 5.38 -0.0032959 12 -0.0032959C10.97 -0.0032959 10.02 0.486704 9.18 1.3667Z" fill="white"/>
</g>
<defs>
<clipPath id="clip0">
<rect width="24" height="24" fill="white"/>
</clipPath>
</defs>
</svg>
