<svg width="23" height="29" viewBox="0 0 23 29" fill="none" xmlns="http://www.w3.org/2000/svg">
<path d="M6.12062 8.46769L6.42509 8.15265L6.15276 7.80944L1.75809 2.27094C2.01854 1.76146 2.45833 1.37214 2.95235 1.08502C3.49726 0.768324 4.06797 0.600305 4.42272 0.54029C4.44144 0.55035 4.47518 0.570824 4.52606 0.610795C4.65079 0.708777 4.80098 0.861869 4.97777 1.05832C5.06323 1.15329 5.15022 1.25303 5.24032 1.35633L5.24328 1.35972C5.33344 1.46309 5.42673 1.57002 5.51943 1.67282C5.7007 1.87383 5.89996 2.08216 6.09818 2.23634L6.09819 2.23635C6.64246 2.65967 7.14919 2.89309 7.64076 2.92707C8.1472 2.96207 8.56059 2.78052 8.89763 2.5296C9.22063 2.28913 9.49822 1.96553 9.73722 1.6847C9.7472 1.67296 9.75713 1.66129 9.76701 1.64967C10.008 1.36639 10.2181 1.11942 10.4489 0.9255C10.8158 0.617211 11.1149 0.515414 11.3478 0.50169C11.5816 0.48791 11.8075 0.559468 12.0331 0.702988C12.5084 1.00524 12.8858 1.56112 13.1402 1.96423L13.1446 1.97125L13.1493 1.97812C13.6677 2.74211 14.2721 3.1435 14.9441 3.16019C15.5839 3.17608 16.1376 2.83574 16.5569 2.47196C16.9851 2.10053 17.3472 1.63973 17.6095 1.28331C17.6758 1.19315 17.7368 1.1082 17.7911 1.0324L17.8117 1.0037C17.8579 0.93907 17.8979 0.883272 17.9334 0.834806C17.964 0.793179 17.9874 0.762309 18.0051 0.740098C18.5856 0.467367 19.1883 0.619345 19.7884 1.03493C20.2966 1.38686 20.7387 1.89026 21.0396 2.32225L16.8171 7.81551L16.5027 8.2245L16.9213 8.52596C17.8342 9.18339 18.7393 10.4113 19.5102 11.7364C20.2732 13.0479 20.8701 14.3937 21.1835 15.2247L21.2003 15.2691L21.225 15.3095C21.4815 15.7281 21.6995 16.3712 21.8735 17.1781C22.0454 17.976 22.1665 18.8958 22.2484 19.8418C22.412 21.7331 22.4157 23.6922 22.3686 24.9148C22.3192 26.0527 21.723 26.8634 20.9533 27.4324C20.1728 28.0095 19.2422 28.3127 18.6367 28.4108L18.5753 28.4207L18.5569 28.4287C18.5421 28.4307 18.5209 28.4332 18.4923 28.436C18.4128 28.4436 18.2991 28.4509 18.1507 28.4576C17.8553 28.4709 17.4449 28.4808 16.9436 28.4876C15.9422 28.5013 14.5938 28.5027 13.1106 28.4964C10.15 28.4838 6.66214 28.4406 4.34878 28.4046C2.64779 28.2974 1.68867 27.4788 1.14788 26.5085C0.589086 25.506 0.467439 24.3161 0.533049 23.5336L0.536871 23.488L0.532355 23.4425C0.397927 22.0871 0.696064 20.1356 1.14799 18.2021C1.59478 16.2906 2.17696 14.4571 2.57662 13.3534C2.92454 12.5218 3.57603 11.5392 4.27191 10.6308C4.96578 9.72501 5.67969 8.92395 6.12062 8.46769Z" stroke="white"/>
<path d="M5 8C5.23636 8 11.5394 10.25 18 8" stroke="white"/>
</svg>
